<?xml version="1.0" encoding="UTF-8"?>
<svg version="1.1" xmlns="http://www.w3.org/2000/svg" width="179" height="177">
<path d="M0 0 C59.07 0 118.14 0 179 0 C179 58.41 179 116.82 179 177 C119.93 177 60.86 177 0 177 C0 118.59 0 60.18 0 0 Z " fill="#201619" transform="translate(0,0)"/>
<path d="M0 0 C17 0 17 0 21.51171875 3.62109375 C23.17773437 5.95898437 23.17773437 5.95898437 24.6875 8.4375 C25.22826172 9.22060547 25.76902344 10.00371094 26.32617188 10.81054688 C27.94248219 13.17374427 29.47061566 15.57990223 31 18 C32.56427446 20.33048738 34.13824258 22.65415136 35.71411133 24.97680664 C36.95729893 26.93281493 38.00370699 28.90916313 39 31 C39.66 31 40.32 31 41 31 C42.63139937 32.92587579 44.13723225 34.84326717 45.625 36.875 C46.04523437 37.43058594 46.46546875 37.98617187 46.8984375 38.55859375 C50 42.73764712 50 42.73764712 50 45 C50.66 45 51.32 45 52 45 C56 50.29411765 56 50.29411765 56 54 C56.66 54 57.32 54 58 54 C58.66 55.65 59.32 57.3 60 59 C60.66 59 61.32 59 62 59 C62 59.66 62 60.32 62 61 C62.66 61 63.32 61 64 61 C65.66816239 63.05038788 67.18632614 65.08292676 68.6875 67.25 C69.11611328 67.83652344 69.54472656 68.42304687 69.98632812 69.02734375 C73.02889446 73.38786555 73.02889446 73.38786555 72.89453125 76.234375 C72 78 72 78 70 81 C69.7192001 83.73612517 69.7192001 83.73612517 69.8125 86.75 C69.81894531 87.75546875 69.82539062 88.7609375 69.83203125 89.796875 C69.86049385 93.06684349 69.86049385 93.06684349 71.09375 96.26953125 C70.95767001 101.68438073 68.19017241 103.68458449 64.43164062 107.36914062 C63.52607422 108.21669922 62.62050781 109.06425781 61.6875 109.9375 C60.79353516 110.81212891 59.89957031 111.68675781 58.97851562 112.58789062 C52.33615096 119 52.33615096 119 50 119 C49.505 120.485 49.505 120.485 49 122 C48.34 122 47.68 122 47 122 C46.63649193 122.85099274 46.63649193 122.85099274 46.26564026 123.71917725 C44.75404416 126.44323944 42.95553701 128.29144296 40.74975586 130.49316406 C39.87222153 131.37377502 38.99468719 132.25438599 38.09056091 133.16168213 C37.13216901 134.11317825 36.17359225 135.0644882 35.21484375 136.015625 C34.23324229 136.99603394 33.25201066 137.97681328 32.27113342 138.95794678 C30.21890976 141.00860901 28.16337735 143.05587482 26.10522461 145.10058594 C23.46134756 147.72741757 20.82415752 150.36084046 18.18916988 152.99658585 C16.16580938 155.01967516 14.13985906 157.04015354 12.1130085 159.05974579 C11.13913347 160.03043014 10.16587042 161.00172887 9.19322014 161.97364044 C7.83828035 163.32642408 6.4796599 164.67551821 5.12084961 166.02441406 C4.34744736 166.79400452 3.5740451 167.56359497 2.77720642 168.35650635 C1 170 1 170 0 170 C0 113.9 0 57.8 0 0 Z " fill="#F6F4F6" transform="translate(0,0)"/>
<path d="M0 0 C39.93 0 79.86 0 121 0 C114.43491215 6.56508785 106.65849055 11.24343185 98.8203125 16.15625 C94.82507044 18.76809799 91.02123303 21.6180921 87.21484375 24.49609375 C85 26 85 26 83 26 C83 26.66 83 27.32 83 28 C81.56298828 29.23681641 81.56298828 29.23681641 79.5703125 30.6015625 C78.85746094 31.09140625 78.14460938 31.58125 77.41015625 32.0859375 C76.65605469 32.59382813 75.90195313 33.10171875 75.125 33.625 C74.37863281 34.140625 73.63226563 34.65625 72.86328125 35.1875 C67.265563 39 67.265563 39 65 39 C65 39.66 65 40.32 65 41 C63.32534144 42.38137335 61.58310868 43.68146716 59.8125 44.9375 C58.84957031 45.62714844 57.88664062 46.31679688 56.89453125 47.02734375 C54.31160566 48.78763717 51.69929264 50.42582385 49 52 C49.42696011 55.70032097 51.33148959 57.74319329 53.7265625 60.484375 C56.19285326 63.41971492 57.79305502 66.37916506 59 70 C60.11375 69.505 61.2275 69.01 62.375 68.5 C68.25399884 66.29668072 74.14157357 66.08530354 80.125 68 C80.74375 68.33 81.3625 68.66 82 69 C80.02 69.99 80.02 69.99 78 71 C76.515 70.01 76.515 70.01 75 69 C73.0103005 68.60986284 71.00980131 68.26797351 69 68 C69.33 68.99 69.66 69.98 70 71 C69.67 71.66 69.34 72.32 69 73 C69.845625 73.103125 70.69125 73.20625 71.5625 73.3125 C75.49084656 74.09816931 78.43086668 75.18044183 82 77 C82.33 77.99 82.66 78.98 83 80 C83.66 80 84.32 80 85 80 C86.7862433 85.35872991 86.95841292 91.00330642 84.5 96.125 C83.7575 97.053125 83.7575 97.053125 83 98 C83.66 98.66 84.32 99.32 85 100 C84 101.33333333 83 102.66666667 82 104 C81.56816406 104.69867188 81.13632813 105.39734375 80.69140625 106.1171875 C79 108 79 108 76.765625 108.4609375 C71.49244741 108.28079789 67.08810845 107.49650248 62 106 C56.99374231 106.22029216 54.36136857 109.04049303 51.0078125 112.42578125 C50.45761444 112.96978073 49.90741638 113.51378021 49.34054565 114.07426453 C48.18426926 115.22345496 47.03308034 116.37778418 45.88671875 117.53686523 C44.1255816 119.31191381 42.34170396 121.06159907 40.5546875 122.81054688 C39.43344356 123.93084005 38.3136014 125.05253831 37.1953125 126.17578125 C36.658992 126.69884354 36.12267151 127.22190582 35.57009888 127.76081848 C33.91461706 129.40049843 33.91461706 129.40049843 32 132 C32.14707209 135.5703425 34.21658259 138.23934655 36.0625 141.25 C39.34115304 146.75249353 42.24748867 152.36742003 45.07055664 158.11474609 C47.55177502 163.15261091 50.1947079 168.07685274 52.96875 172.9609375 C54 175 54 175 54 177 C30.57 177 7.14 177 -17 177 C-17 170 -17 170 -15.28057861 167.44552612 C-14.47545837 166.65896637 -13.67033813 165.87240662 -12.84082031 165.06201172 C-11.93277649 164.1577243 -11.02473267 163.25343689 -10.08917236 162.32174683 C-9.08577303 161.35743237 -8.08208337 160.39341993 -7.078125 159.4296875 C-6.05477984 158.42195742 -5.03305381 157.41258072 -4.01287842 156.40164185 C-1.3266765 153.74776951 1.37940734 151.11514304 4.09069824 148.48693848 C7.37296992 145.29835631 10.63274396 142.08681507 13.89439774 138.87716866 C16.43431141 136.3781999 18.97776556 133.88327286 21.53338623 131.40036011 C22.4540387 130.50237701 23.37469116 129.60439392 24.32324219 128.67919922 C25.1315448 127.89423065 25.93984741 127.10926208 26.77264404 126.30050659 C29.02096634 123.97834508 31.00288264 121.5387546 33 119 C34.13544654 117.94455083 35.30264903 116.92216363 36.5 115.9375 C40.24795567 112.68737526 43.94873349 109.39848505 47.5625 106 C48.11164063 105.51394287 48.66078125 105.02788574 49.2265625 104.52709961 C51.00219707 102.90879146 51.00219707 102.90879146 53 100 C52.96825116 96.4751788 52.96825116 96.4751788 52 93 C51.86791918 90.94004725 51.78204037 88.87643413 51.75 86.8125 C51.72421875 85.80832031 51.6984375 84.80414063 51.671875 83.76953125 C52.04885646 80.58762824 53.11641061 79.49937822 55 77 C54.8275004 73.29500867 52.58310339 70.77915004 50.4375 67.875 C47 63.21327968 47 63.21327968 47 61 C46.34 61 45.68 61 45 61 C45 60.34 45 59.68 45 59 C44.34 59 43.68 59 43 59 C42.34 57.35 41.68 55.7 41 54 C40.34 54 39.68 54 39 54 C35 47.25 35 47.25 35 45 C34.34 45 33.68 45 33 45 C31.5760131 43.28480923 30.2336784 41.5012088 28.9375 39.6875 C28.22464844 38.70136719 27.51179688 37.71523438 26.77734375 36.69921875 C25 34 25 34 24 31 C23.34 31 22.68 31 22 31 C20.37109375 29.015625 20.37109375 29.015625 18.4375 26.25 C15.45175521 22.03738553 12.42395706 17.87085952 9.3125 13.75 C0 1.36018599 0 1.36018599 0 0 Z " fill="#2D2225" transform="translate(17,0)"/>
<path d="M0 0 C8.17936364 0.59661241 16.00017035 1.90526665 24.01635742 3.59741211 C30.32204039 4.92540238 36.59124506 5.92581938 42.98828125 6.72265625 C45.4453125 7.1171875 45.4453125 7.1171875 46.4453125 8.1171875 C46.54055155 11.00861901 46.57084277 13.87610814 46.55883789 16.76782227 C46.55898392 17.67505035 46.55912994 18.58227844 46.5592804 19.51699829 C46.55858091 22.53088735 46.55078684 25.54471543 46.54296875 28.55859375 C46.5411047 30.64224717 46.53968074 32.72590104 46.53868103 34.80955505 C46.53485484 40.30542196 46.5250237 45.80126263 46.51397705 51.29711914 C46.5037651 56.90054977 46.49918387 62.50398463 46.49414062 68.10742188 C46.48340152 79.11068864 46.46632389 90.11393589 46.4453125 101.1171875 C45.7853125 101.1171875 45.1253125 101.1171875 44.4453125 101.1171875 C44.4453125 100.4571875 44.4453125 99.7971875 44.4453125 99.1171875 C43.7234375 98.8903125 43.0015625 98.6634375 42.2578125 98.4296875 C39.4453125 97.1171875 39.4453125 97.1171875 37.1953125 94.828125 C33.7181715 91.40037521 29.89470924 88.90589842 25.82226562 86.24804688 C24.33103234 85.25105091 22.88364423 84.18909211 21.4453125 83.1171875 C21.4453125 82.4571875 21.4453125 81.7971875 21.4453125 81.1171875 C20.34123047 80.73820312 20.34123047 80.73820312 19.21484375 80.3515625 C16.25981038 79.03450954 14.47689085 77.57842046 12.1328125 75.3671875 C8.79323031 72.30727475 5.41504621 69.49985135 1.76171875 66.828125 C-1.89626905 64.12627229 -5.48083499 61.32913766 -9.07519531 58.54345703 C-11.52605279 56.65041648 -13.97648764 54.8359874 -16.5546875 53.1171875 C-16.5546875 52.4571875 -16.5546875 51.7971875 -16.5546875 51.1171875 C-17.3178125 50.8490625 -18.0809375 50.5809375 -18.8671875 50.3046875 C-22.90167545 48.52200678 -22.90167545 48.52200678 -24.5546875 46.1171875 C-24.74736311 43.25040801 -24.79060092 40.5970024 -24.6796875 37.7421875 C-24.63594922 36.23450339 -24.59677111 34.72667901 -24.5625 33.21875 C-24.54437256 32.5067041 -24.52624512 31.7946582 -24.50756836 31.06103516 C-24.48820522 28.94880676 -24.48820522 28.94880676 -25.25390625 26.3046875 C-25.5546875 24.1171875 -25.5546875 24.1171875 -24.19140625 22.203125 C-23.54816406 21.63851562 -22.90492187 21.07390625 -22.2421875 20.4921875 C-19.89090496 18.38414109 -18.33445369 16.78683678 -16.5546875 14.1171875 C-15.8946875 14.1171875 -15.2346875 14.1171875 -14.5546875 14.1171875 C-14.3071875 13.5396875 -14.0596875 12.9621875 -13.8046875 12.3671875 C-12.37168762 9.78778771 -10.77044074 8.05597158 -8.5546875 6.1171875 C-7.8946875 6.1171875 -7.2346875 6.1171875 -6.5546875 6.1171875 C-6.1215625 5.1890625 -6.1215625 5.1890625 -5.6796875 4.2421875 C-4.11966031 1.29546947 -3.42664561 0.15718558 0 0 Z " fill="#F9F8F9" transform="translate(132.5546875,51.8828125)"/>
<path d="M0 0 C4 0 4 0 5.9375 1.80859375 C6.9584375 2.89333984 6.9584375 2.89333984 8 4 C9.63461517 5.07140642 11.30322057 6.09254225 13 7.0625 C16.16377134 8.88070396 19.12130428 10.7543508 22 13 C21.09806733 17.33944276 18.84905979 20.52008344 16.375 24.125 C15.69775879 25.12696411 15.69775879 25.12696411 15.00683594 26.14916992 C12.4634089 29.90058922 9.87159326 33.61523059 7.25 37.3125 C5.03134734 40.44654082 3.00042295 43.62276852 1.0625 46.9375 C-1.67040585 51.58925464 -4.75246877 55.88117381 -8.01953125 60.171875 C-10.07800376 62.96517896 -10.07800376 62.96517896 -11.57421875 66.140625 C-13.16751493 69.27103059 -14.42802199 71.59645241 -17 74 C-21.79618715 74.9286347 -26.17998599 74.66183271 -31 74 C-31.25579834 73.51345947 -31.51159668 73.02691895 -31.77514648 72.52563477 C-33.91218662 68.46149763 -36.05083568 64.39821638 -38.19140625 60.3359375 C-39.97608271 56.94843114 -41.75472896 53.55789437 -43.52734375 50.1640625 C-44.30984449 48.67184808 -45.09239428 47.17965937 -45.875 45.6875 C-46.40951782 44.65894897 -46.40951782 44.65894897 -46.95483398 43.60961914 C-48.60213749 40.47667971 -50.24510712 37.65874817 -52.3203125 34.76953125 C-54 32 -54 32 -53.7552948 30.00544739 C-52.49615582 26.66220051 -49.89490316 24.38519231 -47.42578125 21.88671875 C-46.86432907 21.3129097 -46.30287689 20.73910065 -45.72441101 20.14790344 C-44.53560141 18.93954861 -43.34260388 17.73530169 -42.14575195 16.53491211 C-40.31863489 14.69368227 -38.51984647 12.82750532 -36.72070312 10.95898438 C-35.56154375 9.78742972 -34.40078763 8.61745232 -33.23828125 7.44921875 C-32.70366776 6.88788742 -32.16905426 6.32655609 -31.61824036 5.74821472 C-30.05200195 4.2097168 -30.05200195 4.2097168 -27 2 C-23.75073242 2.12426758 -23.75073242 2.12426758 -21 3 C-13.96472206 4.75881949 -6.73582516 4.83613691 0 2 C0 1.34 0 0.68 0 0 Z " fill="#F9F8F9" transform="translate(102,103)"/>
<path d="M0 0 C1.63597969 0.04021439 3.27205546 0.07670106 4.90820312 0.109375 C8.87871572 0.19667005 12.84452211 0.33420261 16.8125 0.5 C14.39140655 4.29436719 11.95949326 7.59235759 8.73828125 10.734375 C7.61389648 11.84232422 7.61389648 11.84232422 6.46679688 12.97265625 C5.30760742 14.09994141 5.30760742 14.09994141 4.125 15.25 C2.57725519 16.76340701 1.0315728 18.27892705 -0.51171875 19.796875 C-1.19322998 20.46041992 -1.87474121 21.12396484 -2.5769043 21.80761719 C-4.27028351 23.42169442 -4.27028351 23.42169442 -5.1875 25.5 C-5.8475 25.5 -6.5075 25.5 -7.1875 25.5 C-7.1875 26.49 -7.1875 27.48 -7.1875 28.5 C-6.5275 28.5 -5.8675 28.5 -5.1875 28.5 C-5.6825 29.985 -5.6825 29.985 -6.1875 31.5 C-7.321875 31.62375 -8.45625 31.7475 -9.625 31.875 C-10.800625 32.08125 -11.97625 32.2875 -13.1875 32.5 C-13.6825 33.49 -13.6825 33.49 -14.1875 34.5 C-14.8475 34.5 -15.5075 34.5 -16.1875 34.5 C-16.455625 35.139375 -16.72375 35.77875 -17 36.4375 C-18.1875 38.5 -18.1875 38.5 -21.1875 39.5 C-21.89559175 40.81180345 -22.55683502 42.14926542 -23.1875 43.5 C-32.82688849 55.7131295 -32.82688849 55.7131295 -38.1875 57.5 C-38.85783722 58.83149173 -39.52355395 60.16530982 -40.1875 61.5 C-41.91704087 63.51919023 -43.64532504 65.41841627 -45.5 67.3125 C-46.2105957 68.0849707 -46.2105957 68.0849707 -46.93554688 68.87304688 C-48.36328125 70.33203125 -48.36328125 70.33203125 -51.1875 72.5 C-54.48122419 72.4042522 -56.02285608 71.59572321 -58.875 69.9375 C-63.31451087 68.01091981 -67.40519004 67.89234675 -72.1875 68.5 C-73.52285811 69.16260165 -74.85631198 69.82905985 -76.1875 70.5 C-77.5075 70.5 -78.8275 70.5 -80.1875 70.5 C-82.72239044 67.88589423 -84.48734599 65.03169216 -86.25 61.875 C-87.91828467 58.58401606 -87.91828467 58.58401606 -90 56.8125 C-91.1875 55.5 -91.1875 55.5 -91.25 53.5625 C-89.97048825 51.07874191 -88.36811151 50.07482537 -86.01171875 48.6484375 C-83.16517236 46.8563933 -80.56835087 44.743922 -77.921875 42.671875 C-76.1875 41.5 -76.1875 41.5 -74.1875 41.5 C-74.1875 40.84 -74.1875 40.18 -74.1875 39.5 C-72.50624988 38.30457522 -70.76501917 37.19287157 -69 36.125 C-65.98697527 34.29379086 -63.18740139 32.49991982 -60.44921875 30.2734375 C-58.1875 28.5 -58.1875 28.5 -56.1875 28.5 C-56.1875 27.84 -56.1875 27.18 -56.1875 26.5 C-54.3688437 25.07105576 -52.47809147 23.73361022 -50.5625 22.4375 C-49.98000488 22.04119385 -49.39750977 21.6448877 -48.79736328 21.23657227 C-42.99311037 17.31153342 -37.085337 13.54367363 -31.12719727 9.85693359 C-29.06541636 8.4764064 -29.06541636 8.4764064 -26.94897461 6.45947266 C-18.37051819 -0.94736815 -10.73573206 -0.46226774 0 0 Z " fill="#F6F4F5" transform="translate(156.1875,-0.5)"/>
<path d="M0 0 C3.00464685 0.59567821 4.9596177 1.47706849 7.390625 3.328125 C8.32503418 4.02929443 8.32503418 4.02929443 9.27832031 4.74462891 C9.92897461 5.24140137 10.57962891 5.73817383 11.25 6.25 C17.09420832 10.66549462 17.09420832 10.66549462 23.25 14.625 C27.74438188 17.29199584 31.61343557 20.72851211 35.58203125 24.109375 C37.92988298 26.16287205 37.92988298 26.16287205 41 27 C42.66666667 28.66666667 44.33333333 30.33333333 46 32 C47.32567199 32.68177416 48.65753688 33.35191436 50 34 C52 37 52 37 52 54 C22.63 54 -6.74 54 -37 54 C-32.70871437 47.25655116 -28.47036141 40.72200675 -23.75 34.3125 C-15.55077265 23.06876349 -7.65207617 11.62340684 0 0 Z " fill="#F4F1F3" transform="translate(127,123)"/>
<path d="M0 0 C34.98 0 69.96 0 106 0 C104.68 0.66 103.36 1.32 102 2 C102 2.66 102 3.32 102 4 C100.3030358 5.28174956 98.53828204 6.47408002 96.75 7.625 C95.6465625 8.34300781 94.543125 9.06101562 93.40625 9.80078125 C92.83519531 10.16896973 92.26414062 10.5371582 91.67578125 10.91650391 C83.54933749 16.17075178 75.56894689 21.64574349 67.60644531 27.14379883 C66.33677917 28.0200855 65.06599081 28.89474899 63.79394531 29.76757812 C62.61278647 30.57902203 61.43494358 31.39531741 60.26074219 32.21679688 C56.22289653 35 56.22289653 35 54 35 C54 35.66 54 36.32 54 37 C51.8046875 38.5859375 51.8046875 38.5859375 48.875 40.375 C45.68839169 42.33032577 42.56867463 44.27838258 39.5625 46.5 C37 48 37 48 35.02172852 47.81201172 C32.50785542 46.80233391 31.65992449 45.69985627 30.08984375 43.5078125 C29.31737305 42.45013672 29.31737305 42.45013672 28.52929688 41.37109375 C28.00400391 40.62988281 27.47871094 39.88867188 26.9375 39.125 C25.88619347 37.66776878 24.83287701 36.21198504 23.77734375 34.7578125 C23.31577881 34.1095752 22.85421387 33.46133789 22.37866211 32.79345703 C21.03150965 31.04098989 19.56655715 29.55422421 18 28 C17.22961964 26.66884806 16.50330662 25.31163158 15.8125 23.9375 C13.32358482 19.31308056 10.26604378 15.41439414 6.9375 11.3671875 C0 2.89112903 0 2.89112903 0 0 Z " fill="#EAE6E8" transform="translate(25,0)"/>
<path d="M0 0 C5.03937294 1.67979098 6.67349882 6.4353458 9 11 C10.32764511 14.31715459 11.55267308 17.66037261 12.76953125 21.01953125 C13.87062641 23.68662842 14.98361162 25.62272828 16.75 27.875 C19.40717804 31.56552506 19.72811199 33.55916251 20 38 C20.66 38 21.32 38 22 38 C22 38.66 22 39.32 22 40 C1.87 40 -18.26 40 -39 40 C-38.01 39.505 -38.01 39.505 -37 39 C-36.7525 38.4225 -36.505 37.845 -36.25 37.25 C-34.79501388 34.63102498 -32.90825437 33.19493959 -30.58203125 31.35546875 C-28.03872179 29.17638632 -26.10417893 26.6025371 -24 24 C-21.8125 21.625 -21.8125 21.625 -20 20 C-19.34 20 -18.68 20 -18 20 C-17.73574219 19.4112207 -17.47148437 18.82244141 -17.19921875 18.21582031 C-15.95631056 15.91927416 -14.64993519 14.39166834 -12.8125 12.546875 C-12.19632813 11.928125 -11.58015625 11.309375 -10.9453125 10.671875 C-9.98238281 9.72054687 -9.98238281 9.72054687 -9 8.75 C-8.35804687 8.1003125 -7.71609375 7.450625 -7.0546875 6.78125 C-6.43851563 6.16765625 -5.82234375 5.5540625 -5.1875 4.921875 C-4.62417969 4.36081055 -4.06085937 3.79974609 -3.48046875 3.22167969 C-2 2 -2 2 0 2 C0 1.34 0 0.68 0 0 Z " fill="#E7E2E4" transform="translate(43,137)"/>
<path d="M0 0 C0.99 0.33 1.98 0.66 3 1 C3.99 0.67 4.98 0.34 6 0 C6 0.99 6 1.98 6 3 C6.66 3 7.32 3 8 3 C8.495 3.99 8.495 3.99 9 5 C13.92658515 7.11139364 18.79959 8.08138853 24 6.32421875 C25.69126135 5.60475072 27.34942055 4.80844708 29 4 C29.99 4.99 29.99 4.99 31 6 C29.5 8 29.5 8 28 10 C27.56816406 10.69867188 27.13632813 11.39734375 26.69140625 12.1171875 C25 14 25 14 22.765625 14.4609375 C17.49244741 14.28079789 13.08810845 13.49650248 8 12 C2.99374231 12.22029216 0.36136857 15.04049303 -2.9921875 18.42578125 C-3.54238556 18.96978073 -4.09258362 19.51378021 -4.65945435 20.07426453 C-5.81573074 21.22345496 -6.96691966 22.37778418 -8.11328125 23.53686523 C-9.8744184 25.31191381 -11.65829604 27.06159907 -13.4453125 28.81054688 C-14.56655644 29.93084005 -15.6863986 31.05253831 -16.8046875 32.17578125 C-17.341008 32.69884354 -17.87732849 33.22190582 -18.42990112 33.76081848 C-20.08538294 35.40049843 -20.08538294 35.40049843 -22 38 C-21.85292791 41.5703425 -19.78341741 44.23934655 -17.9375 47.25 C-14.65884696 52.75249353 -11.75251133 58.36742003 -8.92944336 64.11474609 C-6.44822498 69.15261091 -3.8052921 74.07685274 -1.03125 78.9609375 C0 81 0 81 0 83 C-1.98 83 -3.96 83 -6 83 C-6 82.34 -6 81.68 -6 81 C-6.66 81 -7.32 81 -8 81 C-8.61875 79.205625 -8.61875 79.205625 -9.25 77.375 C-10.26118334 74.65803541 -11.19678049 72.71794796 -12.875 70.3125 C-14.92135241 67.12259772 -16.08127234 64.29531137 -17.375 60.75 C-20.84859707 50.47687072 -20.84859707 50.47687072 -28 43 C-28 43.66 -28 44.32 -28 45 C-29.43359375 46.41015625 -29.43359375 46.41015625 -31.4375 48.0625 C-39.73060884 54.68811486 -39.73060884 54.68811486 -46 63 C-46.66 63 -47.32 63 -48 63 C-48.66 64.32 -49.32 65.64 -50 67 C-50.66 67 -51.32 67 -52 67 C-52.66 68.32 -53.32 69.64 -54 71 C-54.66 71 -55.32 71 -56 71 C-56.20625 71.556875 -56.4125 72.11375 -56.625 72.6875 C-58.51894524 75.87277155 -61.11676025 77.70517652 -64 80 C-64.53625 80.598125 -65.0725 81.19625 -65.625 81.8125 C-67 83 -67 83 -71 83 C-71.50862475 76.75564295 -71.50862475 76.75564295 -69.28057861 73.44552612 C-68.47545837 72.65896637 -67.67033813 71.87240662 -66.84082031 71.06201172 C-65.47875458 69.7055806 -65.47875458 69.7055806 -64.08917236 68.32174683 C-63.08577303 67.35743237 -62.08208337 66.39341993 -61.078125 65.4296875 C-60.05477984 64.42195742 -59.03305381 63.41258072 -58.01287842 62.40164185 C-55.3266765 59.74776951 -52.62059266 57.11514304 -49.90930176 54.48693848 C-46.62703008 51.29835631 -43.36725604 48.08681507 -40.10560226 44.87716866 C-37.56568859 42.3781999 -35.02223444 39.88327286 -32.46661377 37.40036011 C-31.5459613 36.50237701 -30.62530884 35.60439392 -29.67675781 34.67919922 C-28.8684552 33.89423065 -28.06015259 33.10926208 -27.22735596 32.30050659 C-24.97903366 29.97834508 -22.99711736 27.5387546 -21 25 C-19.86455346 23.94455083 -18.69735097 22.92216363 -17.5 21.9375 C-13.7515344 18.70630848 -10.12398318 15.37231733 -6.5625 11.9375 C-5.76392578 11.19584595 -5.76392578 11.19584595 -4.94921875 10.43920898 C-1.55237782 7.11771896 -0.27530275 4.75073719 0 0 Z " fill="#1B1114" transform="translate(71,94)"/>
<path d="M0 0 C0.33 0 0.66 0 1 0 C1 17.16 1 34.32 1 52 C-27.63636364 48.81818182 -27.63636364 48.81818182 -38 45 C-37.47211617 41.00614207 -36.46018707 38.90103064 -33.75 35.9375 C-33.11835938 35.2465625 -32.48671875 34.555625 -31.8359375 33.84375 C-30 32 -30 32 -27.375 29.9375 C-25.14940037 28.12187925 -23.91524753 26.59103939 -22.3125 24.25 C-21.549375 23.1775 -20.78625 22.105 -20 21 C-19.34 21 -18.68 21 -18 21 C-18 20.34 -18 19.68 -18 19 C-17.34 19 -16.68 19 -16 19 C-15.73574219 18.40703125 -15.47148437 17.8140625 -15.19921875 17.203125 C-13.95629575 14.91970946 -12.69598354 13.52573277 -10.8125 11.75 C-7.45179468 8.50202274 -4.40093 5.07015719 -1.3828125 1.50390625 C-0.92648438 1.00761719 -0.47015625 0.51132812 0 0 Z " fill="#E8E2E5" transform="translate(178,2)"/>
<path d="M0 0 C3.1875 -0.25 3.1875 -0.25 6 0 C4.60645961 4.43399214 2.3098228 6.91135868 -1 10 C-2.58911033 11.55662425 -4.17203948 13.11957421 -5.75 14.6875 C-6.52859375 15.45449219 -7.3071875 16.22148437 -8.109375 17.01171875 C-10.05230615 18.8610699 -10.05230615 18.8610699 -11 21 C-11.66 21 -12.32 21 -13 21 C-13 21.66 -13 22.32 -13 23 C-13.66 23 -14.32 23 -15 23 C-15.268125 23.58265625 -15.53625 24.1653125 -15.8125 24.765625 C-17.01480991 27.02786601 -18.33825913 28.80576318 -20 30.75 C-20.515625 31.36359375 -21.03125 31.9771875 -21.5625 32.609375 C-23 34 -23 34 -25 34 C-25.226875 34.53625 -25.45375 35.0725 -25.6875 35.625 C-26.86248478 37.75116293 -28.03384262 39.25498127 -29.625 41.0625 C-32.31436107 43.75923113 -32.31436107 43.75923113 -32 47 C-30.76636719 47.18175781 -30.76636719 47.18175781 -29.5078125 47.3671875 C-22.62508169 48.40039189 -15.8129554 49.5854457 -9 51 C-6.2923914 51.54530173 -3.58366607 52.08497913 -0.875 52.625 C0.44012223 52.88793049 1.75522789 53.15094392 3.0703125 53.4140625 C4.03710938 53.60742188 5.00390625 53.80078125 6 54 C6 55.98 6 57.96 6 60 C1.85338675 59.38010591 -2.2921306 58.75315377 -6.4375 58.125 C-7.60216797 57.95097656 -8.76683594 57.77695312 -9.96679688 57.59765625 C-15.70530277 56.72475676 -21.36012935 55.7459769 -27.01342773 54.43261719 C-30.09845975 53.76078768 -33.17242567 53.37336387 -36.3125 53.0625 C-37.48425781 52.92972656 -38.65601563 52.79695313 -39.86328125 52.66015625 C-43.16831237 52.67684363 -43.16831237 52.67684363 -45.2109375 55.3203125 C-45.80132812 56.20460937 -46.39171875 57.08890625 -47 58 C-48.07303145 58.9729819 -49.17589191 59.91460673 -50.3125 60.8125 C-53.80654228 63.69038858 -56.59581545 66.934966 -59.421875 70.4609375 C-61 72 -61 72 -64 72 C-66.33564933 72.31669821 -68.6693782 72.64820803 -71 73 C-70.27554688 72.43796875 -69.55109375 71.8759375 -68.8046875 71.296875 C-61.98710764 65.71367589 -55.96379597 59.19634799 -50.375 52.3984375 C-49.92125 51.93695313 -49.4675 51.47546875 -49 51 C-48.34 51 -47.68 51 -47 51 C-46.73832031 50.42121094 -46.47664063 49.84242187 -46.20703125 49.24609375 C-43.10789615 43.47909478 -37.81624857 38.40342726 -33 34 C-32.34 34 -31.68 34 -31 34 C-30.67 33.01 -30.34 32.02 -30 31 C-28.865625 30.87625 -27.73125 30.7525 -26.5625 30.625 C-25.386875 30.41875 -24.21125 30.2125 -23 30 C-22.67 29.34 -22.34 28.68 -22 28 C-22.66 28 -23.32 28 -24 28 C-24 27.01 -24 26.02 -24 25 C-23.34 25 -22.68 25 -22 25 C-21.74855225 24.42185547 -21.49710449 23.84371094 -21.23803711 23.24804688 C-19.84148458 20.71216525 -18.26221701 19.05098093 -16.19140625 17.03125 C-15.44439453 16.29519531 -14.69738281 15.55914062 -13.92773438 14.80078125 C-13.14720703 14.04152344 -12.36667969 13.28226563 -11.5625 12.5 C-10.019851 10.99191658 -8.47940327 9.48157739 -6.94140625 7.96875 C-6.25763916 7.30294922 -5.57387207 6.63714844 -4.86938477 5.95117188 C-2.94335514 4.04328383 -2.94335514 4.04328383 -1.45288086 1.76757812 C-0.97343018 1.18427734 -0.49397949 0.60097656 0 0 Z " fill="#23191C" transform="translate(173,0)"/>
<path d="M0 0 C0.86882812 0.24105469 1.73765625 0.48210937 2.6328125 0.73046875 C5.30710006 2.02102216 5.86665688 3.07637795 6.875 5.8125 C7.535 5.8125 8.195 5.8125 8.875 5.8125 C10.74651006 11.42703019 10.78688821 16.88350571 8.25 22.25 C4.6074842 26.18008284 1.63763043 27.62695995 -3.6875 28.1875 C-7.43415398 27.77877411 -9.20556834 27.16426439 -12.125 24.8125 C-13.17604383 23.17754293 -14.18488318 21.51366376 -15.125 19.8125 C-15.785 19.4825 -16.445 19.1525 -17.125 18.8125 C-17.69528066 6.75212004 -17.69528066 6.75212004 -14.125 2.8125 C-9.22063723 -0.70858096 -5.80835104 -1.70782859 0 0 Z M-11.125 17.8125 C-11.125 18.4725 -11.125 19.1325 -11.125 19.8125 C-9.805 19.4825 -8.485 19.1525 -7.125 18.8125 C-8.445 18.4825 -9.765 18.1525 -11.125 17.8125 Z " fill="#423738" transform="translate(93.125,74.1875)"/>
<path d="M0 0 C0.99 0.33 1.98 0.66 3 1 C3 1.66 3 2.32 3 3 C2.34 3 1.68 3 1 3 C0.87882812 3.56589844 0.75765625 4.13179687 0.6328125 4.71484375 C0.46523438 5.44832031 0.29765625 6.18179688 0.125 6.9375 C-0.03742187 7.66839844 -0.19984375 8.39929688 -0.3671875 9.15234375 C-1 11 -1 11 -3 12 C-2.01 12 -1.02 12 0 12 C1.7578125 17.95703125 1.7578125 17.95703125 2 20 C1.34 20.99 0.68 21.98 0 23 C-0.99 23 -1.98 23 -3 23 C-3.33 24.65 -3.66 26.3 -4 28 C-11.59 28 -19.18 28 -27 28 C-26.34 27.67 -25.68 27.34 -25 27 C-24.7525 26.4225 -24.505 25.845 -24.25 25.25 C-22.79501388 22.63102498 -20.90825437 21.19493959 -18.58203125 19.35546875 C-16.03872179 17.17638632 -14.10417893 14.6025371 -12 12 C-9.8125 9.625 -9.8125 9.625 -8 8 C-7.34 8 -6.68 8 -6 8 C-5.7525 7.4225 -5.505 6.845 -5.25 6.25 C-3.83316683 3.6997003 -2.12372463 1.98214299 0 0 Z " fill="#E2DEE0" transform="translate(31,149)"/>
<path d="M0 0 C0.33 0.66 0.66 1.32 1 2 C3.31 1.34 5.62 0.68 8 0 C12.54364256 6.70187278 16.38268038 13.51840332 19.9296875 20.78173828 C22.66133444 26.37125126 25.56099215 31.85439278 28.56225586 37.30371094 C31 41.78734214 31 41.78734214 31 44 C29.02 44 27.04 44 25 44 C25 43.34 25 42.68 25 42 C24.34 42 23.68 42 23 42 C22.5875 40.80375 22.175 39.6075 21.75 38.375 C20.73881666 35.65803541 19.80321951 33.71794796 18.125 31.3125 C16.07864759 28.12259772 14.91872766 25.29531137 13.625 21.75 C10.15140293 11.47687072 10.15140293 11.47687072 3 4 C2.67 4.66 2.34 5.32 2 6 C2 5.34 2 4.68 2 4 C1.34 4 0.68 4 0 4 C0 2.68 0 1.36 0 0 Z " fill="#2E2426" transform="translate(40,133)"/>
<path d="M0 0 C1.42978262 2.85956524 1.8910006 4.76384528 2 8 C0.64143862 10.87809711 -1.25269795 13.29705278 -3.1875 15.8125 C-4.29222153 17.30818408 -5.39637058 18.80429114 -6.5 20.30078125 C-7.07492188 21.0685791 -7.64984375 21.83637695 -8.2421875 22.62744141 C-11.13415278 26.53079122 -13.90426715 30.51879094 -16.6875 34.5 C-21.83961701 41.83961701 -21.83961701 41.83961701 -23 43 C-24.66617115 43.04063832 -26.33388095 43.042721 -28 43 C-26.36987393 38.09044384 -23.56582682 34.19454772 -20.625 30 C-20.14289063 29.30132812 -19.66078125 28.60265625 -19.1640625 27.8828125 C-17.1171933 24.93487588 -15.0515786 22.06392454 -12.796875 19.26953125 C-11.10944436 17.13823298 -9.86720294 15.09702131 -8.625 12.6875 C-6.16144105 8.11341547 -3.22300311 4.06474963 0 0 Z " fill="#2F2629" transform="translate(113,134)"/>
<path d="M0 0 C5.625 -0.25 5.625 -0.25 9 2 C11.32387947 2.39387788 13.65793749 2.73486085 16 3 C16 3.66 16 4.32 16 5 C18.3431213 4.74438677 20.67843403 4.40729228 23 4 C23.33 3.34 23.66 2.68 24 2 C23.48194307 4.59028463 22.96048126 7.17388247 22.375 9.75 C22.25125 10.4925 22.1275 11.235 22 12 C22.33 12.33 22.66 12.66 23 13 C23.07205511 14.68608966 23.08386068 16.37500659 23.0625 18.0625 C23.05347656 18.98160156 23.04445313 19.90070313 23.03515625 20.84765625 C23.02355469 21.55792969 23.01195313 22.26820312 23 23 C22.34 23.33 21.68 23.66 21 24 C20.67 24.66 20.34 25.32 20 26 C19.34 26 18.68 26 18 26 C17.93941406 25.40832031 17.87882812 24.81664063 17.81640625 24.20703125 C17.37987629 20.09021792 16.91328654 16.04455467 16 12 C15.34 12 14.68 12 14 12 C13.34 11.01 12.68 10.02 12 9 C9.1333051 7.76147688 9.1333051 7.76147688 5.875 6.8125 C4.77929688 6.46832031 3.68359375 6.12414062 2.5546875 5.76953125 C1.71164063 5.51558594 0.86859375 5.26164062 0 5 C0 3.35 0 1.7 0 0 Z " fill="#1D1215" transform="translate(86,68)"/>
<path d="M0 0 C0.33 1.32 0.66 2.64 1 4 C1.66 4 2.32 4 3 4 C5.33333333 4 7.66666667 4 10 4 C9.67 4.66 9.34 5.32 9 6 C7.88431641 6.15275391 7.88431641 6.15275391 6.74609375 6.30859375 C2.0843282 7.48232419 -0.30435983 11.3470817 -3.40234375 14.84765625 C-6.5760645 17.47731058 -7.99994931 17.22982507 -12 17 C-14.9271127 19.46143568 -16.88082786 21.82124178 -19 25 C-19.66 25 -20.32 25 -21 25 C-21 25.66 -21 26.32 -21 27 C-22.98 27.33 -24.96 27.66 -27 28 C-24.3990099 23.55664191 -21.56378712 20.6350073 -17.63671875 17.34375 C-11.47739296 11.86879374 -5.78856083 5.86204842 0 0 Z " fill="#20191C" transform="translate(70,100)"/>
<path d="M0 0 C0 0.99 0 1.98 0 3 C-0.33 3.33 -0.66 3.66 -1 4 C0.32 4.66 1.64 5.32 3 6 C1.9171875 6.8353125 1.9171875 6.8353125 0.8125 7.6875 C-2.82902692 10.68164435 -6.05310018 13.81637522 -9 17.5 C-11.97926165 21.22407706 -15.02760652 24.35173768 -19 27 C-22.11257569 27 -24.10765685 26.82638376 -27 26 C-26.27554688 25.60167969 -25.55109375 25.20335938 -24.8046875 24.79296875 C-21.82944808 22.89097029 -19.59772383 20.82867425 -17.125 18.3125 C-15.82949219 16.99572266 -15.82949219 16.99572266 -14.5078125 15.65234375 C-11.67861587 12.66009374 -8.98980113 9.5789408 -6.375 6.3984375 C-5.92125 5.93695313 -5.4675 5.47546875 -5 5 C-4.34 5 -3.68 5 -3 5 C-2.690625 4.360625 -2.38125 3.72125 -2.0625 3.0625 C-1 1 -1 1 0 0 Z " fill="#271F22" transform="translate(129,46)"/>
<path d="M0 0 C0.78375 0.04125 1.5675 0.0825 2.375 0.125 C2.375 4.54436013 -0.07287136 6.02546749 -3.06835938 9.07617188 C-3.80892578 9.81416016 -4.54949219 10.55214844 -5.3125 11.3125 C-6.3943457 12.43688477 -6.3943457 12.43688477 -7.49804688 13.58398438 C-8.55668945 14.64649414 -8.55668945 14.64649414 -9.63671875 15.73046875 C-10.28084717 16.38168701 -10.92497559 17.03290527 -11.58862305 17.70385742 C-14.10250928 19.4582432 -15.62325203 19.40795032 -18.625 19.125 C-18.625 18.465 -18.625 17.805 -18.625 17.125 C-19.945 18.115 -21.265 19.105 -22.625 20.125 C-23.285 19.795 -23.945 19.465 -24.625 19.125 C-17.25705352 11.18375509 -17.25705352 11.18375509 -12.625 10.125 C-11.965 10.455 -11.305 10.785 -10.625 11.125 C-10.625 10.465 -10.625 9.805 -10.625 9.125 C-9.64851983 8.10202078 -8.64368662 7.10595748 -7.625 6.125 C-6.61857052 4.79651309 -5.61807821 3.46349671 -4.625 2.125 C-2.625 0.125 -2.625 0.125 0 0 Z " fill="#1F1518" transform="translate(59.625,115.875)"/>
<path d="M0 0 C0.99 0.33 1.98 0.66 3 1 C1.71034824 2.37562854 0.37310707 3.70766393 -1 5 C-1.66 5 -2.32 5 -3 5 C-3.226875 5.53625 -3.45375 6.0725 -3.6875 6.625 C-5 9 -5 9 -7.625 12 C-10.41380196 14.88497939 -10.41380196 14.88497939 -10 19 C-11.65 19.33 -13.3 19.66 -15 20 C-16.0625 18.125 -16.0625 18.125 -17 16 C-16.67 15.34 -16.34 14.68 -16 14 C-16.66 13.67 -17.32 13.34 -18 13 C-17.21625 12.236875 -16.4325 11.47375 -15.625 10.6875 C-12.92742283 8.09108195 -12.92742283 8.09108195 -11 5 C-10.34 5 -9.68 5 -9 5 C-8.67 4.01 -8.34 3.02 -8 2 C-6.2984375 1.7834375 -6.2984375 1.7834375 -4.5625 1.5625 C-1.19222799 1.38828522 -1.19222799 1.38828522 0 0 Z M-13 13 C-13 13.66 -13 14.32 -13 15 C-13.66 15 -14.32 15 -15 15 C-14.67 15.66 -14.34 16.32 -14 17 C-13.01 16.01 -12.02 15.02 -11 14 C-11.66 13.67 -12.32 13.34 -13 13 Z M-19 17 C-18.34 17.66 -17.68 18.32 -17 19 C-17.66 19 -18.32 19 -19 19 C-19 18.34 -19 17.68 -19 17 Z " fill="#302326" transform="translate(151,29)"/>
<path d="M0 0 C3.30112566 -0.6484354 4.85242708 -0.95171546 8 0 C11.96077452 3.71322612 15.4225695 8.09931395 16.5 13.51171875 C16.5 15.6875 16.5 15.6875 16 19 C16.66 19 17.32 19 18 19 C18 19.66 18 20.32 18 21 C14.81258197 20.7253472 13.97740301 19.97437121 11.81640625 17.5234375 C11.07261719 16.48445313 10.32882813 15.44546875 9.5625 14.375 C9.17070557 13.83319092 8.77891113 13.29138184 8.37524414 12.7331543 C7.24148726 11.16165888 6.12045929 9.58100395 5 8 C4.44054687 7.23558594 3.88109375 6.47117187 3.3046875 5.68359375 C0 1.16089286 0 1.16089286 0 0 Z " fill="#1A1215" transform="translate(17,0)"/>
<path d="M0 0 C0.33 0.66 0.66 1.32 1 2 C1.66 2.33 2.32 2.66 3 3 C2 6 2 6 0 8 C1.98491642 7.73323796 1.98491642 7.73323796 4 7 C4.33 6.01 4.66 5.02 5 4 C6.65 4.33 8.3 4.66 10 5 C8.75023244 8.65316671 8.32901247 9.78065836 5 12 C5 12.33 5 12.66 5 13 C1.37 12.67 -2.26 12.34 -6 12 C-6.33 10.68 -6.66 9.36 -7 8 C-5.56640625 5.859375 -5.56640625 5.859375 -3.5625 3.75 C-2.57443359 2.69039062 -2.57443359 2.69039062 -1.56640625 1.609375 C-1.04949219 1.07828125 -0.53257812 0.5471875 0 0 Z " fill="#DFDEDF" transform="translate(147,36)"/>
<path d="M0 0 C0.66 0 1.32 0 2 0 C3.33333333 1.33333333 4.66666667 2.66666667 6 4 C8.28931069 5.73790683 10.63575643 7.36321599 13 9 C12.01 9.99 11.02 10.98 10 12 C10.99 12.33 11.98 12.66 13 13 C12.34 14.32 11.68 15.64 11 17 C10.34 16.67 9.68 16.34 9 16 C9 15.01 9 14.02 9 13 C7.52306261 11.68288103 7.52306261 11.68288103 5.53515625 10.58984375 C4.81779297 10.15736328 4.10042969 9.72488281 3.36132812 9.27929688 C2.60271484 8.83650391 1.84410156 8.39371094 1.0625 7.9375 C-0.42839612 7.05518488 -1.91681274 6.16866235 -3.40234375 5.27734375 C-4.06741943 4.88796631 -4.73249512 4.49858887 -5.41772461 4.09741211 C-7 3 -7 3 -8 1 C-5.36 1.33 -2.72 1.66 0 2 C0 1.34 0 0.68 0 0 Z " fill="#251A1D" transform="translate(114,103)"/>
<path d="M0 0 C4.30130966 1.43376989 5.23625005 4.61615517 7.1875 8.4375 C7.55552734 9.13166016 7.92355469 9.82582031 8.30273438 10.54101562 C11 15.71035772 11 15.71035772 11 18 C9.02 18 7.04 18 5 18 C5 17.34 5 16.68 5 16 C4.34 16 3.68 16 3 16 C1.15011717 11.33507807 -0.52028656 7.03699117 -1 2 C-0.67 1.34 -0.34 0.68 0 0 Z " fill="#211619" transform="translate(60,159)"/>
<path d="M0 0 C-3.17462662 3.26533024 -6.43865371 6.16918628 -10 9 C-11.0828125 10.11375 -11.0828125 10.11375 -12.1875 11.25 C-14 13 -14 13 -16 13 C-16.33 13.99 -16.66 14.98 -17 16 C-17.66 15.67 -18.32 15.34 -19 15 C-19 13.68 -19 12.36 -19 11 C-18.34 11 -17.68 11 -17 11 C-16.67 10.34 -16.34 9.68 -16 9 C-16.33 8.67 -16.66 8.34 -17 8 C-16.236875 7.4225 -15.47375 6.845 -14.6875 6.25 C-11.99600539 4.18774664 -11.99600539 4.18774664 -10.4375 1.8125 C-9 0 -9 0 -7.125 -0.8125 C-4.57641432 -1.03737521 -2.4720025 -0.61800062 0 0 Z " fill="#24191C" transform="translate(78,42)"/>
<path d="M0 0 C2.06271639 0.3110685 4.12516466 0.62391516 6.1875 0.9375 C7.33605469 1.11152344 8.48460937 1.28554688 9.66796875 1.46484375 C12.46325212 1.91379313 15.22933586 2.42082162 18 3 C18 4.98 18 6.96 18 9 C11.4 8.01 4.8 7.02 -2 6 C-0.68 5.67 0.64 5.34 2 5 C2 3.68 2 2.36 2 1 C1.34 0.67 0.68 0.34 0 0 Z " fill="#302629" transform="translate(161,51)"/>
<path d="M0 0 C1.3848299 2.76965979 1.81662353 4.89382716 2 8 C0.34765625 10.9921875 0.34765625 10.9921875 -1.9375 13.875 C-2.68902344 14.84179688 -3.44054687 15.80859375 -4.21484375 16.8046875 C-4.80394531 17.52914062 -5.39304687 18.25359375 -6 19 C-6.66 18.67 -7.32 18.34 -8 18 C-8 17.34 -8 16.68 -8 16 C-8.66 16 -9.32 16 -10 16 C-8.61936434 12.14254559 -6.82183102 9.07512134 -4.4375 5.75 C-3.81746094 4.87859375 -3.19742188 4.0071875 -2.55859375 3.109375 C-1 1 -1 1 0 0 Z " fill="#201619" transform="translate(113,134)"/>
<path d="M0 0 C0.33 0.99 0.66 1.98 1 3 C2.98 2.34 4.96 1.68 7 1 C7 1.66 7 2.32 7 3 C7.66 3 8.32 3 9 3 C9.38218767 4.65614657 9.71395102 6.32457024 10 8 C9.67 8.33 9.34 8.66 9 9 C9.66 9.66 10.32 10.32 11 11 C8 13 8 13 6.046875 12.90234375 C3.25891753 11.67330143 2.06670872 9.98866015 0.25 7.5625 C-0.36359375 6.75941406 -0.9771875 5.95632812 -1.609375 5.12890625 C-3 3 -3 3 -3 1 C-2.01 0.67 -1.02 0.34 0 0 Z M6 3 C7 6 7 6 7 6 Z " fill="#E7DDE0" transform="translate(54,35)"/>
<path d="M0 0 C0 3 0 3 -1.5 4.6875 C-1.995 5.120625 -2.49 5.55375 -3 6 C-2.34 6.66 -1.68 7.32 -1 8 C-1.33 8.99 -1.66 9.98 -2 11 C-3.11375 11.12375 -3.11375 11.12375 -4.25 11.25 C-8.69255313 12.4616054 -10.51382951 15.27074426 -13 19 C-13.66 19 -14.32 19 -15 19 C-15 19.66 -15 20.32 -15 21 C-16.98 21.33 -18.96 21.66 -21 22 C-18.3153108 17.41365594 -15.29592193 14.35342501 -11.23828125 10.9453125 C-7.28620591 7.51052451 -3.6622767 3.73857414 0 0 Z " fill="#2A1B1E" transform="translate(64,106)"/>
<path d="M0 0 C7.11484687 0.3856646 13.35441866 1.39099399 20 4 C20 5.32 20 6.64 20 8 C18.41676312 8.027193 16.83338938 8.04648306 15.25 8.0625 C13.92742187 8.07990234 13.92742187 8.07990234 12.578125 8.09765625 C10.2181162 8.00826198 8.25501476 7.66912821 6 7 C6.33 6.01 6.66 5.02 7 4 C7.99 4 8.98 4 10 4 C10 3.34 10 2.68 10 2 C8.3603125 2.5259375 8.3603125 2.5259375 6.6875 3.0625 C3 4 3 4 0 3 C0 2.01 0 1.02 0 0 Z " fill="#251C1F" transform="translate(143,48)"/>
<path d="M0 0 C0.66 0.33 1.32 0.66 2 1 C0.7260411 3.03833424 -0.61061923 5.03852126 -2 7 C-2.66 7 -3.32 7 -4 7 C-4 8.32 -4 9.64 -4 11 C-3.34 11 -2.68 11 -2 11 C-2 10.01 -2 9.02 -2 8 C1.465 7.505 1.465 7.505 5 7 C4.67 8.32 4.34 9.64 4 11 C3.34 11 2.68 11 2 11 C0.38050989 13.57213134 -0.04408751 14.67669159 0.375 17.75 C0.58125 18.4925 0.7875 19.235 1 20 C-1.79742859 18.6012857 -2.53268703 16.37222996 -3.9765625 13.70703125 C-4.96945077 11.87204559 -4.96945077 11.87204559 -6.8125 10.3125 C-8 9 -8 9 -8.0625 7.0625 C-6.46602984 3.96346969 -3.92978193 2.77007658 -1 1 C-0.67 0.67 -0.34 0.34 0 0 Z " fill="#EBE8EA" transform="translate(73,46)"/>
<path d="M0 0 C3.75485316 1.25161772 4.16894128 2.45574597 6.125 5.8125 C6.64320312 6.68519531 7.16140625 7.55789062 7.6953125 8.45703125 C8.8390932 10.68637627 9.53256809 12.55453305 10 15 C9.34 15 8.68 15 8 15 C7.34 13.68 6.68 12.36 6 11 C4.02 11.33 2.04 11.66 0 12 C0 10.35 0 8.7 0 7 C-1.65 6.67 -3.3 6.34 -5 6 C-3.625 4 -3.625 4 -2 2 C-1.34 2 -0.68 2 0 2 C0 1.34 0 0.68 0 0 Z " fill="#D0CACD" transform="translate(43,137)"/>
<path d="M0 0 C3.92488093 3.70060202 7.02215543 7.4906925 10 12 C10 12.66 10 13.32 10 14 C8.35 14.66 6.7 15.32 5 16 C3.02 13.36 1.04 10.72 -1 8 C-0.01 8 0.98 8 2 8 C2 7.34 2 6.68 2 6 C1.34 6 0.68 6 0 6 C0 4.02 0 2.04 0 0 Z " fill="#201A1D" transform="translate(33,13)"/>
<path d="M0 0 C1.32 0.66 2.64 1.32 4 2 C3.360625 2.433125 2.72125 2.86625 2.0625 3.3125 C-0.26746003 4.91239177 -0.26746003 4.91239177 -1 8 C-4.11877956 9.55938978 -6.57255771 9.3607834 -10 9 C-11.9375 6.5 -11.9375 6.5 -13 4 C-12.34 4 -11.68 4 -11 4 C-11 3.01 -11 2.02 -11 1 C-8.83125748 1.50603992 -7.00032373 1.99983813 -5 3 C-4.01 3.33 -3.02 3.66 -2 4 C-2 3.34 -2 2.68 -2 2 C-1.34 1.34 -0.68 0.68 0 0 Z " fill="#3D3132" transform="translate(96,93)"/>
<path d="M0 0 C0.66 0 1.32 0 2 0 C2.875 2 2.875 2 3 5 C1.35957149 7.97809337 -0.5438856 10.64329975 -3 13 C-3.99 13 -4.98 13 -6 13 C-6.33 13.66 -6.66 14.32 -7 15 C-7.33 14.34 -7.66 13.68 -8 13 C-6.17413572 7.72528096 -3.84538439 4.04258359 0 0 Z " fill="#1B1013" transform="translate(103,150)"/>
<path d="M0 0 C3.10742423 1.46818668 5.90471739 3.20025 8.75 5.125 C9.94882813 5.93324219 9.94882813 5.93324219 11.171875 6.7578125 C11.77515625 7.16773438 12.3784375 7.57765625 13 8 C9.94508687 9.52745657 7.41987028 10 4 10 C1.81947002 8.51448079 -0.02195971 6.75825803 -2 5 C-1.34 3.35 -0.68 1.7 0 0 Z " fill="#1F1619" transform="translate(157,137)"/>
<path d="M0 0 C2.86724686 0.57344937 3.8614515 0.8614515 6 3 C5.625 5.125 5.625 5.125 5 7 C5.66 7.33 6.32 7.66 7 8 C4 10 4 10 2.0625 9.6875 C1.381875 9.460625 0.70125 9.23375 0 9 C-0.7425 8.814375 -1.485 8.62875 -2.25 8.4375 C-2.8275 8.293125 -3.405 8.14875 -4 8 C-2.66666667 5.33333333 -1.33333333 2.66666667 0 0 Z " fill="#EAEAEC" transform="translate(127,123)"/>
<path d="M0 0 C0.28571429 7.42857143 0.28571429 7.42857143 -2 11 C-4.31 10.34 -6.62 9.68 -9 9 C-8.23587913 7.87043002 -7.46340197 6.74651022 -6.6875 5.625 C-6.25824219 4.99851562 -5.82898438 4.37203125 -5.38671875 3.7265625 C-2.39366516 0 -2.39366516 0 0 0 Z " fill="#DCD7D9" transform="translate(178,4)"/>
<path d="M0 0 C3.80984844 2.77079887 4.06840752 6.62868145 5 11 C4.01 11.66 3.02 12.32 2 13 C1.34 11.35 0.68 9.7 0 8 C-0.66 8 -1.32 8 -2 8 C-2 7.34 -2 6.68 -2 6 C-2.66 6 -3.32 6 -4 6 C-3.34 4.68 -2.68 3.36 -2 2 C-1.34 2 -0.68 2 0 2 C0 1.34 0 0.68 0 0 Z " fill="#261D20" transform="translate(64,53)"/>
<path d="M0 0 C1.65 0.33 3.3 0.66 5 1 C3.75023244 4.65316671 3.32901247 5.78065836 0 8 C0 8.33 0 8.66 0 9 C-3.63 8.67 -7.26 8.34 -11 8 C-11 7.67 -11 7.34 -11 7 C-9.35 7 -7.7 7 -6 7 C-5.67 6.01 -5.34 5.02 -5 4 C-3.66666667 3.66666667 -2.33333333 3.33333333 -1 3 C-0.67 2.01 -0.34 1.02 0 0 Z " fill="#E3DDDF" transform="translate(152,40)"/>
<path d="M0 0 C0 0.99 0 1.98 0 3 C-1.828125 4.640625 -1.828125 4.640625 -4.25 6.25 C-5.03890625 6.79140625 -5.8278125 7.3328125 -6.640625 7.890625 C-9 9 -9 9 -11.296875 8.671875 C-11.85890625 8.45015625 -12.4209375 8.2284375 -13 8 C-11.64905419 3.94716257 -9.62004582 3.12943872 -6 1 C-3.81415715 0.27138572 -2.2889001 0 0 0 Z " fill="#22171A" transform="translate(122,9)"/>
<path d="M0 0 C0.33 0.66 0.66 1.32 1 2 C3.31 1.34 5.62 0.68 8 0 C10.48772258 3.2837938 11.03180444 4.61198583 10.6875 8.8125 C10.460625 9.864375 10.23375 10.91625 10 12 C9.1028125 10.8553125 9.1028125 10.8553125 8.1875 9.6875 C6.53040668 7.6516425 4.89702326 5.8021721 3 4 C2.67 4.66 2.34 5.32 2 6 C2 5.34 2 4.68 2 4 C1.34 4 0.68 4 0 4 C0 2.68 0 1.36 0 0 Z " fill="#221B1E" transform="translate(40,133)"/>
<path d="M0 0 C1.32 0 2.64 0 4 0 C6.140625 2.3359375 6.140625 2.3359375 8.25 5.375 C8.95640625 6.37273438 9.6628125 7.37046875 10.390625 8.3984375 C12 11 12 11 12 13 C10.35 12.67 8.7 12.34 7 12 C6.67 11.01 6.34 10.02 6 9 C5.67 8.67 5.34 8.34 5 8 C4.67 7.01 4.34 6.02 4 5 C1.98491642 4.26676204 1.98491642 4.26676204 0 4 C0 2.68 0 1.36 0 0 Z " fill="#291F22" transform="translate(21,0)"/>
<path d="M0 0 C2 3 2 3 1.625 5.6875 C1.41875 6.450625 1.2125 7.21375 1 8 C-0.98 8.33 -2.96 8.66 -5 9 C-5 6.69 -5 4.38 -5 2 C-3.35 1.34 -1.7 0.68 0 0 Z " fill="#170D10" transform="translate(5,168)"/>
<path d="M0 0 C0.33 0 0.66 0 1 0 C1.33663062 3.70293685 1.47736015 5.39534381 -0.875 8.375 C-3 10 -3 10 -5 10 C-5.33 10.99 -5.66 11.98 -6 13 C-6.66 12.67 -7.32 12.34 -8 12 C-8 10.68 -8 9.36 -8 8 C-7.34 8 -6.68 8 -6 8 C-5.67 7.34 -5.34 6.68 -5 6 C-5.33 5.67 -5.66 5.34 -6 5 C-5.195625 4.360625 -4.39125 3.72125 -3.5625 3.0625 C-1.7249496 1.59396498 -1.7249496 1.59396498 0 0 Z " fill="#190E11" transform="translate(67,45)"/>
<path d="M0 0 C0.66 0 1.32 0 2 0 C2.33 2.31 2.66 4.62 3 7 C4.32 7 5.64 7 7 7 C5.63016497 10.16115776 5.0109362 10.9927092 2 13 C2 12.34 2 11.68 2 11 C1.34 11 0.68 11 0 11 C-0.19406478 9.35492782 -0.38007935 7.70890406 -0.5625 6.0625 C-0.66691406 5.14597656 -0.77132812 4.22945312 -0.87890625 3.28515625 C-0.91886719 2.53105469 -0.95882812 1.77695313 -1 1 C-0.67 0.67 -0.34 0.34 0 0 Z " fill="#F0EAEB" transform="translate(2,153)"/>
<path d="M0 0 C0.33 1.32 0.66 2.64 1 4 C1.66 4 2.32 4 3 4 C5.33333333 4 7.66666667 4 10 4 C9.67 4.66 9.34 5.32 9 6 C7.8553125 6.2165625 7.8553125 6.2165625 6.6875 6.4375 C3.73890802 7.05464716 2.26703116 8.06882531 0 10 C-1.66666667 8.33333333 -3.33333333 6.66666667 -5 5 C-3.35 3.35 -1.7 1.7 0 0 Z " fill="#231E21" transform="translate(70,100)"/>
<path d="M0 0 C0.66 0 1.32 0 2 0 C3.125 7.75 3.125 7.75 2 10 C0.35 10 -1.3 10 -3 10 C-2.25 3.375 -2.25 3.375 0 0 Z " fill="#3B3132" transform="translate(79,77)"/>
<path d="M0 0 C0 2.64 0 5.28 0 8 C-0.99 8.33 -1.98 8.66 -3 9 C-3.66 8.34 -4.32 7.68 -5 7 C-7.10820797 7.3185177 -7.10820797 7.3185177 -9 8 C-8.875 6.25 -8.875 6.25 -8 4 C-2.77777778 0 -2.77777778 0 0 0 Z " fill="#F8F7F9" transform="translate(108,22)"/>
<path d="M0 0 C1.32 1.32 2.64 2.64 4 4 C3.34 4 2.68 4 2 4 C2 4.99 2 5.98 2 7 C1.34 7 0.68 7 0 7 C0 7.66 0 8.32 0 9 C-1.65 9.66 -3.3 10.32 -5 11 C-5.33 10.01 -5.66 9.02 -6 8 C-5.34 7.67 -4.68 7.34 -4 7 C-3.29848848 5.6846659 -2.63474075 4.34882408 -2 3 C-1.34 2.01 -0.68 1.02 0 0 Z " fill="#14090C" transform="translate(21,150)"/>
<path d="M0 0 C5.53846154 -0.36923077 5.53846154 -0.36923077 7.875 1.5 C8.24625 1.995 8.6175 2.49 9 3 C8.67 3.99 8.34 4.98 8 6 C5.36 5.67 2.72 5.34 0 5 C0 3.35 0 1.7 0 0 Z " fill="#14080B" transform="translate(86,68)"/>
<path d="M0 0 C2.31 0 4.62 0 7 0 C7 0.66 7 1.32 7 2 C4.6640625 3.69140625 4.6640625 3.69140625 1.625 5.5625 C0.62726563 6.18253906 -0.37046875 6.80257812 -1.3984375 7.44140625 C-2.90395068 8.34335784 -4.43026458 9.21513229 -6 10 C-5.43137108 6.70195229 -4.49977286 5.19980011 -2 3 C-1.34 2.34 -0.68 1.68 0 1 C0 0.67 0 0.34 0 0 Z " fill="#E6DADB" transform="translate(72,35)"/>
<path d="M0 0 C0.33 1.32 0.66 2.64 1 4 C-1.64738916 5.4606285 -2.89448334 6 -6 6 C-6 6.66 -6 7.32 -6 8 C-6.66 8 -7.32 8 -8 8 C-8 7.01 -8 6.02 -8 5 C-9.32 4.67 -10.64 4.34 -12 4 C-11.34 4 -10.68 4 -10 4 C-9.67 3.34 -9.34 2.68 -9 2 C-6.03 2 -3.06 2 0 2 C0 1.34 0 0.68 0 0 Z " fill="#160E11" transform="translate(109,70)"/>
<path d="M0 0 C0 0.66 0 1.32 0 2 C0.66 2 1.32 2 2 2 C1.67 2.99 1.34 3.98 1 5 C-2.96 5 -6.92 5 -11 5 C-10 2 -10 2 -7.75 0.8125 C-5.00208853 0.00061706 -2.84552111 -0.16260121 0 0 Z " fill="#D1CACB" transform="translate(149,26)"/>
<path d="M0 0 C0 0.66 0 1.32 0 2 C-0.66 2 -1.32 2 -2 2 C-2 2.66 -2 3.32 -2 4 C-0.68 4.33 0.64 4.66 2 5 C1.34 6.65 0.68 8.3 0 10 C-4.30983135 7.47354714 -5.29942025 4.50653635 -7 0 C-3.86650268 -1.04449911 -3.01031744 -0.93423645 0 0 Z " fill="#E7E1E2" transform="translate(47,21)"/>
<path d="M0 0 C1.32 0.33 2.64 0.66 4 1 C0.37 4.63 -3.26 8.26 -7 12 C-7.33 10.68 -7.66 9.36 -8 8 C-7.34 7.01 -6.68 6.02 -6 5 C-5.34 5 -4.68 5 -4 5 C-2.61767557 3.37373596 -1.28062485 1.7074998 0 0 Z " fill="#EDE1E4" transform="translate(39,127)"/>
<path d="M0 0 C2.71928517 0.37507382 3.84218661 0.84218661 5.8125 2.8125 C7 5 7 5 6.8125 7.0625 C6 9 6 9 4 12 C3.34 12 2.68 12 2 12 C1.67 11.01 1.34 10.02 1 9 C1.66 8.01 2.32 7.02 3 6 C2.67 5.67 2.34 5.34 2 5 C2 4.01 2 3.02 2 2 C1.34 2 0.68 2 0 2 C0 1.34 0 0.68 0 0 Z " fill="#EEE8E9" transform="translate(66,69)"/>
<path d="M0 0 C2.64 0 5.28 0 8 0 C8.33 0.99 8.66 1.98 9 3 C7.68 3.33 6.36 3.66 5 4 C5 4.66 5 5.32 5 6 C4.01 6.495 4.01 6.495 3 7 C2.34444881 9.52733235 2.34444881 9.52733235 2 12 C1.67 12 1.34 12 1 12 C1.01160156 11.30132812 1.02320312 10.60265625 1.03515625 9.8828125 C1.04417969 8.97273437 1.05320313 8.06265625 1.0625 7.125 C1.07410156 6.22007812 1.08570312 5.31515625 1.09765625 4.3828125 C1.16249257 1.9831415 1.16249257 1.9831415 0 0 Z " fill="#EFEEEF" transform="translate(0,0)"/>
<path d="M0 0 C0.99 0.33 1.98 0.66 3 1 C4.1875 3.5625 4.1875 3.5625 5 6 C4.01 6.66 3.02 7.32 2 8 C-1.6875 7.125 -1.6875 7.125 -5 6 C-3.625 4 -3.625 4 -2 2 C-1.34 2 -0.68 2 0 2 C0 1.34 0 0.68 0 0 Z " fill="#D5D2D6" transform="translate(43,137)"/>
<path d="M0 0 C1.32 0 2.64 0 4 0 C2.65463623 4.4030087 0.83947688 6.471564 -3 9 C-3.99 9 -4.98 9 -6 9 C-4.46782946 5.55261628 -2.59429556 2.74690118 0 0 Z " fill="#181014" transform="translate(175,0)"/>
<path d="M0 0 C0.66 0.66 1.32 1.32 2 2 C1.625 4.125 1.625 4.125 1 6 C-2.4375 4.6875 -2.4375 4.6875 -6 3 C-6.33 2.01 -6.66 1.02 -7 0 C-4.29393021 -1.35303489 -2.8671629 -0.7884698 0 0 Z " fill="#191013" transform="translate(170,146)"/>
<path d="M0 0 C0 1.33333333 0 2.66666667 0 4 C0.66 4.33 1.32 4.66 2 5 C1.01 5.33 0.02 5.66 -1 6 C-1 6.66 -1 7.32 -1 8 C-0.34 8 0.32 8 1 8 C0.34 9.32 -0.32 10.64 -1 12 C-2.5 10.625 -2.5 10.625 -4 9 C-4 8.34 -4 7.68 -4 7 C-4.66 6.67 -5.32 6.34 -6 6 C-4.02 4.02 -2.04 2.04 0 0 Z " fill="#24181B" transform="translate(34,136)"/>
<path d="M0 0 C0 0.99 0 1.98 0 3 C-0.33 3.33 -0.66 3.66 -1 4 C0.32 4.66 1.64 5.32 3 6 C2.21625 6.61875 1.4325 7.2375 0.625 7.875 C-1.96837647 9.89858661 -1.96837647 9.89858661 -4 12 C-4 10.68 -4 9.36 -4 8 C-4.66 8 -5.32 8 -6 8 C-5.67 7.01 -5.34 6.02 -5 5 C-4.34 5 -3.68 5 -3 5 C-2.5359375 4.0409375 -2.5359375 4.0409375 -2.0625 3.0625 C-1 1 -1 1 0 0 Z " fill="#3D3335" transform="translate(129,46)"/>
<path d="M0 0 C0.66 0.33 1.32 0.66 2 1 C0.7260411 3.03833424 -0.61061923 5.03852126 -2 7 C-2.66 7 -3.32 7 -4 7 C-4.33 7.99 -4.66 8.98 -5 10 C-5.99 9.67 -6.98 9.34 -8 9 C-7.875 7.25 -7.875 7.25 -7 5 C-4 2.8125 -4 2.8125 -1 1 C-0.67 0.67 -0.34 0.34 0 0 Z " fill="#DDDBDD" transform="translate(73,46)"/>
<path d="M0 0 C6 8 6 8 6 12 C4.02 12 2.04 12 0 12 C0 8.04 0 4.08 0 0 Z " fill="#2B2225" transform="translate(65,165)"/>
<path d="M0 0 C0.33 0.99 0.66 1.98 1 3 C0.34 3 -0.32 3 -1 3 C-1 3.66 -1 4.32 -1 5 C-5 5 -5 5 -8 4 C-8 3.01 -8 2.02 -8 1 C-2.25 -1.125 -2.25 -1.125 0 0 Z " fill="#382F31" transform="translate(90,74)"/>
<path d="M0 0 C3.68006822 3.38168431 5.9785845 6.42521756 8 11 C6.35 10.67 4.7 10.34 3 10 C2.34 8.02 1.68 6.04 1 4 C0.34 4 -0.32 4 -1 4 C-0.67 2.68 -0.34 1.36 0 0 Z " fill="#E4E0E2" transform="translate(25,12)"/>
<path d="M0 0 C0.125 2.375 0.125 2.375 0 5 C-2 7 -2 7 -4.625 7.125 C-5.40875 7.08375 -6.1925 7.0425 -7 7 C-4.60526316 0 -4.60526316 0 0 0 Z " fill="#251A1C" transform="translate(92,170)"/>
<path d="M0 0 C1 3 1 3 0.125 5 C-0.24625 5.66 -0.6175 6.32 -1 7 C-1.33 7.99 -1.66 8.98 -2 10 C-3.65 10.33 -5.3 10.66 -7 11 C-5.22054913 6.95579349 -2.60470327 3.53921513 0 0 Z " fill="#D6D7D9" transform="translate(122,131)"/>
<path d="M0 0 C0.99 0.33 1.98 0.66 3 1 C2.67 1.33 2.34 1.66 2 2 C1.95936168 3.66617115 1.957279 5.33388095 2 7 C2.66 7 3.32 7 4 7 C4.33 6.01 4.66 5.02 5 4 C5 6.31 5 8.62 5 11 C4.01 11.495 4.01 11.495 3 12 C2.01 11.67 1.02 11.34 0 11 C0 7.37 0 3.74 0 0 Z " fill="#13080C" transform="translate(70,82)"/>
<path d="M0 0 C0.99 0.33 1.98 0.66 3 1 C2.25 3.4375 2.25 3.4375 1 6 C-0.875 6.9375 -0.875 6.9375 -3 7 C-5.25 6.0625 -5.25 6.0625 -7 5 C-5.90554162 4.13342884 -4.79902219 3.28207276 -3.6875 2.4375 C-3.07261719 1.96183594 -2.45773438 1.48617187 -1.82421875 0.99609375 C-1.22222656 0.66738281 -0.62023437 0.33867187 0 0 Z " fill="#E0E0E3" transform="translate(138,0)"/>
<path d="M0 0 C-3.32307692 3.93846154 -3.32307692 3.93846154 -6.75 4.25 C-7.4925 4.1675 -8.235 4.085 -9 4 C-9.33 4.66 -9.66 5.32 -10 6 C-10.33 4.68 -10.66 3.36 -11 2 C-7.36576791 -0.32590854 -4.22911669 -0.16265833 0 0 Z " fill="#261C1E" transform="translate(138,0)"/>
<path d="M0 0 C0.66 0 1.32 0 2 0 C1.67 2.31 1.34 4.62 1 7 C-2.93673644 5.68775452 -5.22719294 4.08089673 -8 1 C-5.36 1.33 -2.72 1.66 0 2 C0 1.34 0 0.68 0 0 Z " fill="#40383B" transform="translate(114,103)"/>
<path d="M0 0 C3.39417765 3.12621626 5.6062718 5.56541027 7 10 C5.35 9.67 3.7 9.34 2 9 C1.67 9.99 1.34 10.98 1 12 C-0.125 8.25 -0.125 8.25 1 6 C0.71887936 3.99199544 0.38932033 1.98985949 0 0 Z " fill="#3A3235" transform="translate(67,57)"/>
<path d="M0 0 C0.66 0 1.32 0 2 0 C2 7.92 2 15.84 2 24 C1.67 24 1.34 24 1 24 C0.93941406 22.74703125 0.87882813 21.4940625 0.81640625 20.203125 C0.73197744 18.55207276 0.64733061 16.90103165 0.5625 15.25 C0.52318359 14.425 0.48386719 13.6 0.44335938 12.75 C0.40146484 11.95078125 0.35957031 11.1515625 0.31640625 10.328125 C0.27974854 9.5949707 0.24309082 8.86181641 0.20532227 8.10644531 C0.0564432 5.97165223 0.0564432 5.97165223 -0.58227539 3.85449219 C-1 2 -1 2 0 0 Z " fill="#F6EEF2" transform="translate(176,22)"/>
<path d="M0 0 C0.33 0.66 0.66 1.32 1 2 C1.66 2.33 2.32 2.66 3 3 C2.01 3.33 1.02 3.66 0 4 C0.66 4.33 1.32 4.66 2 5 C2 6.32 2 7.64 2 9 C0.02 8.34 -1.96 7.68 -4 7 C-1.125 1.125 -1.125 1.125 0 0 Z " fill="#302427" transform="translate(121,122)"/>
<path d="M0 0 C1.65 0.99 3.3 1.98 5 3 C4.01 3.99 3.02 4.98 2 6 C2.99 6.33 3.98 6.66 5 7 C4.34 8.32 3.68 9.64 3 11 C2.34 10.67 1.68 10.34 1 10 C1 9.01 1 8.02 1 7 C-0.9375006 4.81222534 -0.9375006 4.81222534 -3 3 C-2.01 3 -1.02 3 0 3 C0 2.01 0 1.02 0 0 Z " fill="#31282B" transform="translate(122,109)"/>
<path d="M0 0 C0.99 0.33 1.98 0.66 3 1 C1.71034824 2.37562854 0.37310707 3.70766393 -1 5 C-1.66 5 -2.32 5 -3 5 C-3.268125 5.61875 -3.53625 6.2375 -3.8125 6.875 C-5 9 -5 9 -8 11 C-7.91601729 8.14458787 -7.39043615 6.43760967 -5.48046875 4.296875 C-2.00244352 1.16299122 -2.00244352 1.16299122 0 0 Z " fill="#363235" transform="translate(151,29)"/>
<path d="M0 0 C2.5 2.3125 2.5 2.3125 5 5 C5 5.99 5 6.98 5 8 C3 9.6875 3 9.6875 1 11 C0.34 10.01 -0.32 9.02 -1 8 C-0.01 8 0.98 8 2 8 C2 7.34 2 6.68 2 6 C1.34 6 0.68 6 0 6 C0 4.02 0 2.04 0 0 Z " fill="#382F32" transform="translate(33,13)"/>
<path d="M0 0 C0.99 0.33 1.98 0.66 3 1 C3 1.66 3 2.32 3 3 C2.34 3 1.68 3 1 3 C0.34 4.65 -0.32 6.3 -1 8 C-2.65 7.67 -4.3 7.34 -6 7 C-4.02 4.69 -2.04 2.38 0 0 Z " fill="#CCCBCD" transform="translate(31,149)"/>
<path d="M0 0 C2.475 0.99 2.475 0.99 5 2 C4.67 3.32 4.34 4.64 4 6 C1 6 1 6 -2 4 C-1.34 2.68 -0.68 1.36 0 0 Z " fill="#140C10" transform="translate(152,134)"/>
<path d="M0 0 C1.27875 -0.061875 2.5575 -0.12375 3.875 -0.1875 C4.95394531 -0.23970703 4.95394531 -0.23970703 6.0546875 -0.29296875 C6.69664063 -0.19628906 7.33859375 -0.09960938 8 0 C8.66 0.99 9.32 1.98 10 3 C9.34 3.66 8.68 4.32 8 5 C4.55834679 4.64700993 2.93127462 3.95418308 0 2 C0 1.34 0 0.68 0 0 Z " fill="#F3EBEC" transform="translate(97,67)"/>
<path d="M0 0 C-0.54226981 3.79588866 -2.20127563 5.47211993 -5 8 C-5.66 6.68 -6.32 5.36 -7 4 C-3.375 0 -3.375 0 0 0 Z " fill="#E9DFE1" transform="translate(103,148)"/>
<path d="M0 0 C1.98 1.32 3.96 2.64 6 4 C5.360625 4.28875 4.72125 4.5775 4.0625 4.875 C1.84793921 5.82823451 1.84793921 5.82823451 1 8 C-0.32 7.34 -1.64 6.68 -3 6 C-2.34 5.34 -1.68 4.68 -1 4 C-0.3574765 1.93125966 -0.3574765 1.93125966 0 0 Z " fill="#2A2326" transform="translate(141,124)"/>
<path d="M0 0 C0.66 0.66 1.32 1.32 2 2 C0.35 4.64 -1.3 7.28 -3 10 C-3.66 8.68 -4.32 7.36 -5 6 C-3.4198632 3.84526801 -1.89353366 1.89353366 0 0 Z " fill="#F4EBEB" transform="translate(118,122)"/>
<path d="M0 0 C5.37305699 0.0880829 5.37305699 0.0880829 8 1 C9.68983507 3.28980909 10.18962861 5.21434833 11 8 C7.22272911 6.18690997 3.62730178 4.0926741 0 2 C0 1.34 0 0.68 0 0 Z " fill="#302B2E" transform="translate(127,121)"/>
<path d="M0 0 C-0.33 0.99 -0.66 1.98 -1 3 C-1.66 3 -2.32 3 -3 3 C-3 3.66 -3 4.32 -3 5 C-3.99 5.33 -4.98 5.66 -6 6 C-6 5.34 -6 4.68 -6 4 C-6.66 3.67 -7.32 3.34 -8 3 C-6 0 -6 0 -4 -0.75 C-2 -1 -2 -1 0 0 Z " fill="#20181B" transform="translate(103,23)"/>
<path d="M0 0 C3.37503669 1.1858237 5.64722731 2.27573689 8 5 C6.35 5 4.7 5 3 5 C2.67 5.66 2.34 6.32 2 7 C0.68 6.34 -0.64 5.68 -2 5 C-1.34 4.67 -0.68 4.34 0 4 C0 2.68 0 1.36 0 0 Z " fill="#382F32" transform="translate(162,141)"/>
<path d="M0 0 C2.97 0.495 2.97 0.495 6 1 C6.33 1.99 6.66 2.98 7 4 C6.01 4.33 5.02 4.66 4 5 C3.34 5.66 2.68 6.32 2 7 C0 4 0 4 0 0 Z " fill="#241B1E" transform="translate(69,66)"/>
<path d="M0 0 C2.31 0.33 4.62 0.66 7 1 C7 2.32 7 3.64 7 5 C4.36 4.67 1.72 4.34 -1 4 C-0.34 3.34 0.32 2.68 1 2 C0.67 1.34 0.34 0.68 0 0 Z " fill="#150B0E" transform="translate(156,51)"/>
<path d="M0 0 C0.33 0.99 0.66 1.98 1 3 C3.01508358 3.73323796 3.01508358 3.73323796 5 4 C5 4.66 5 5.32 5 6 C3.02 6 1.04 6 -1 6 C-1.66 4.68 -2.32 3.36 -3 2 C-2.01 1.34 -1.02 0.68 0 0 Z " fill="#E8E3E6" transform="translate(12,171)"/>
<path d="M0 0 C1.30048841 2.60097682 1.56471422 5.13955062 2 8 C-2 8 -2 8 -5 7 C-1.125 1.125 -1.125 1.125 0 0 Z " fill="#403335" transform="translate(113,134)"/>
<path d="M0 0 C-2.31 2.31 -4.62 4.62 -7 7 C-7.33 5.68 -7.66 4.36 -8 3 C-5.17247777 -1.24128334 -5.05080092 -1.26270023 0 0 Z " fill="#ECE6E6" transform="translate(168,7)"/>
<path d="M0 0 C2.64 0.66 5.28 1.32 8 2 C6.71034824 3.37562854 5.37310707 4.70766393 4 6 C3.34 6 2.68 6 2 6 C2 5.34 2 4.68 2 4 C1.01 3.67 0.02 3.34 -1 3 C-0.67 2.01 -0.34 1.02 0 0 Z " fill="#DCD6D7" transform="translate(119,1)"/>
<path d="M0 0 C0.66 0.33 1.32 0.66 2 1 C2.6328125 3.06640625 2.6328125 3.06640625 3.125 5.5625 C3.29257812 6.38878906 3.46015625 7.21507812 3.6328125 8.06640625 C3.75398438 8.70449219 3.87515625 9.34257812 4 10 C3.01 10 2.02 10 1 10 C0.63883954 8.5225254 0.28624952 7.04295325 -0.0625 5.5625 C-0.25972656 4.73878906 -0.45695312 3.91507813 -0.66015625 3.06640625 C-0.82837891 2.04353516 -0.82837891 2.04353516 -1 1 C-0.67 0.67 -0.34 0.34 0 0 Z " fill="#1D1215" transform="translate(52,144)"/>
<path d="M0 0 C2.96404505 2.80804268 5.44499019 5.18315774 7 9 C6.01 9 5.02 9 4 9 C4 8.34 4 7.68 4 7 C3.34 7 2.68 7 2 7 C2 6.34 2 5.68 2 5 C1.34 5 0.68 5 0 5 C0 3.35 0 1.7 0 0 Z M-2 5 C-1.34 5 -0.68 5 0 5 C-0.33 5.66 -0.66 6.32 -1 7 C-1.33 6.34 -1.66 5.68 -2 5 Z " fill="#362D2F" transform="translate(46,31)"/>
<path d="M0 0 C0.66 0.33 1.32 0.66 2 1 C1.34 2.98 0.68 4.96 0 7 C-0.99 7 -1.98 7 -3 7 C-3 6.34 -3 5.68 -3 5 C-3.66 4.67 -4.32 4.34 -5 4 C-3.35 2.68 -1.7 1.36 0 0 Z " fill="#E3E3E5" transform="translate(95,30)"/>
<path d="M0 0 C0.99 0.33 1.98 0.66 3 1 C1.02 1.99 1.02 1.99 -1 3 C-0.34 4.32 0.32 5.64 1 7 C-1.31 7 -3.62 7 -6 7 C-5.34 6.67 -4.68 6.34 -4 6 C-3.3162955 4.67532254 -2.65035814 3.34136367 -2 2 C-1.34 1.34 -0.68 0.68 0 0 Z " fill="#C5C2C6" transform="translate(10,170)"/>
<path d="M0 0 C0 2.31 0 4.62 0 7 C-0.66 6.67 -1.32 6.34 -2 6 C-2 5.34 -2 4.68 -2 4 C-2.639375 3.87625 -3.27875 3.7525 -3.9375 3.625 C-4.618125 3.41875 -5.29875 3.2125 -6 3 C-6.33 2.34 -6.66 1.68 -7 1 C-4.50935112 0.31292445 -2.62113708 0 0 0 Z " fill="#2C2629" transform="translate(179,153)"/>
<path d="M0 0 C1.75 0.0625 1.75 0.0625 4 1 C5.72518887 3.25123006 6.76906007 5.40134903 8 8 C7.67 8.66 7.34 9.32 7 10 C5.68 8.35 4.36 6.7 3 5 C2.01 5.495 2.01 5.495 1 6 C0.67 4.02 0.34 2.04 0 0 Z " fill="#4D4548" transform="translate(49,140)"/>
<path d="M0 0 C1.32 0.33 2.64 0.66 4 1 C2.68 1.33 1.36 1.66 0 2 C0 1.34 0 0.68 0 0 Z M-6 1 C-3.00675737 2.0975223 -2.15389099 2.67682892 -0.75 5.625 C-0.5025 6.40875 -0.255 7.1925 0 8 C-0.99 7.67 -1.98 7.34 -3 7 C-3 6.34 -3 5.68 -3 5 C-3.66 5 -4.32 5 -5 5 C-5.33 3.68 -5.66 2.36 -6 1 Z M-2 2 C0 3 0 3 0 3 Z " fill="#362B2D" transform="translate(82,92)"/>
<path d="M0 0 C0 0.99 0 1.98 0 3 C0.33 3.99 0.66 4.98 1 6 C0.01 6.99 -0.98 7.98 -2 9 C-2.66 8.67 -3.32 8.34 -4 8 C-3.50168276 4.31245243 -2.89932357 2.39509338 0 0 Z " fill="#DADADC" transform="translate(111,72)"/>
<path d="M0 0 C0.99 0 1.98 0 3 0 C3 1.65 3 3.3 3 5 C2.34 5 1.68 5 1 5 C0.67 5.99 0.34 6.98 0 8 C-0.33 7.34 -0.66 6.68 -1 6 C-0.67 5.34 -0.34 4.68 0 4 C-0.66 3.67 -1.32 3.34 -2 3 C-1.34 2.01 -0.68 1.02 0 0 Z M-3 7 C-2.34 7.66 -1.68 8.32 -1 9 C-1.66 9 -2.32 9 -3 9 C-3 8.34 -3 7.68 -3 7 Z " fill="#2B1D20" transform="translate(135,39)"/>
<path d="M0 0 C0.66 0 1.32 0 2 0 C2 0.66 2 1.32 2 2 C2.66 2 3.32 2 4 2 C4 2.66 4 3.32 4 4 C4.99 4 5.98 4 7 4 C6.67 4.99 6.34 5.98 6 7 C4.125 6.6875 4.125 6.6875 2 6 C0 3 0 3 0 0 Z " fill="#1A1014" transform="translate(46,36)"/>
<path d="M0 0 C0.66 0.33 1.32 0.66 2 1 C0.44499019 4.81684226 -2.03595495 7.19195732 -5 10 C-5.33 9.01 -5.66 8.02 -6 7 C-4.78515625 5.17578125 -4.78515625 5.17578125 -3.0625 3.3125 C-2.49660156 2.68988281 -1.93070313 2.06726563 -1.34765625 1.42578125 C-0.90292969 0.95527344 -0.45820313 0.48476562 0 0 Z " fill="#EDE5E6" transform="translate(155,15)"/>
<path d="M0 0 C1.5625 1.0625 1.5625 1.0625 3 3 C2.6875 6.6875 2.6875 6.6875 2 10 C-2 5.25 -2 5.25 -2 3 C-1.34 3 -0.68 3 0 3 C0 2.01 0 1.02 0 0 Z " fill="#2F292C" transform="translate(48,135)"/>
<path d="M0 0 C3.48539917 0.64544429 6.02819057 2.10134397 9 4 C5.94736336 4.98120464 4.05263664 4.98120464 1 4 C0.67 2.68 0.34 1.36 0 0 Z " fill="#D4D3D5" transform="translate(145,136)"/>
<path d="M0 0 C0.33 0.99 0.66 1.98 1 3 C1.66 3 2.32 3 3 3 C3 3.66 3 4.32 3 5 C0.69 5 -1.62 5 -4 5 C-4 4.01 -4 3.02 -4 2 C-2.68 1.34 -1.36 0.68 0 0 Z " fill="#DAD4D7" transform="translate(62,172)"/>
<path d="M0 0 C0.99 0.33 1.98 0.66 3 1 C2.67 2.32 2.34 3.64 2 5 C1.01 5 0.02 5 -1 5 C-1.33 5.66 -1.66 6.32 -2 7 C-2.33 6.34 -2.66 5.68 -3 5 C-1.5625 2.375 -1.5625 2.375 0 0 Z " fill="#110A0D" transform="translate(98,158)"/>
<path d="M0 0 C1.98 0.495 1.98 0.495 4 1 C3.6875 2.875 3.6875 2.875 3 5 C2.01 5.66 1.02 6.32 0 7 C-1.125 2.25 -1.125 2.25 0 0 Z " fill="#160D10" transform="translate(114,134)"/>
<path d="M0 0 C10.55808656 -0.3690205 10.55808656 -0.3690205 15 2 C13.02 2.99 13.02 2.99 11 4 C10.01 3.34 9.02 2.68 8 2 C5.9507906 1.54860541 5.9507906 1.54860541 3.8125 1.375 C1.9253125 1.189375 1.9253125 1.189375 0 1 C0 0.67 0 0.34 0 0 Z " fill="#5D4E51" transform="translate(84,67)"/>
<path d="M0 0 C0.99 0 1.98 0 3 0 C2.25 2.9375 2.25 2.9375 1 6 C-1.125 6.875 -1.125 6.875 -3 7 C-1.125 1.125 -1.125 1.125 0 0 Z " fill="#1F1114" transform="translate(145,30)"/>
<path d="M0 0 C1.65 0.33 3.3 0.66 5 1 C3.35 2.98 1.7 4.96 0 7 C-0.66 5.68 -1.32 4.36 -2 3 C-1.34 2.34 -0.68 1.68 0 1 C0 0.67 0 0.34 0 0 Z " fill="#E7DBDD" transform="translate(26,138)"/>
<path d="M0 0 C0.598125 0.350625 1.19625 0.70125 1.8125 1.0625 C1.4825 2.3825 1.1525 3.7025 0.8125 5.0625 C-4.0625 2.3125 -4.0625 2.3125 -5.1875 0.0625 C-2.1875 -0.9375 -2.1875 -0.9375 0 0 Z " fill="#E3E0E1" transform="translate(145.1875,121.9375)"/>
<path d="M0 0 C1.32 0.66 2.64 1.32 4 2 C3.34 2 2.68 2 2 2 C2 2.66 2 3.32 2 4 C-0.375 5.6875 -0.375 5.6875 -3 7 C-3.66 6.67 -4.32 6.34 -5 6 C-3.35 4.02 -1.7 2.04 0 0 Z " fill="#19090C" transform="translate(65,106)"/>
<path d="M0 0 C1.32 0 2.64 0 4 0 C4 1.98 4 3.96 4 6 C2.02 5.01 0.04 4.02 -2 3 C-1.34 2.67 -0.68 2.34 0 2 C0 1.34 0 0.68 0 0 Z " fill="#DDDEDF" transform="translate(102,103)"/>
<path d="M0 0 C3.63 0.33 7.26 0.66 11 1 C11 1.33 11 1.66 11 2 C3.375 4.125 3.375 4.125 0 3 C0 2.01 0 1.02 0 0 Z " fill="#2E2124" transform="translate(143,48)"/>
<path d="M0 0 C2.1519437 3.22791555 2.20086443 4.28400809 2 8 C0.29115995 6.37660195 -1.37446717 4.70680947 -3 3 C-3 2.34 -3 1.68 -3 1 C-2.01 0.67 -1.02 0.34 0 0 Z " fill="#DFD6D8" transform="translate(54,35)"/>
<path d="M0 0 C0.33 0.66 0.66 1.32 1 2 C1.66 2.33 2.32 2.66 3 3 C1.6875 4.5 1.6875 4.5 0 6 C-0.99 6 -1.98 6 -3 6 C-3 4.68 -3 3.36 -3 2 C-2.01 1.34 -1.02 0.68 0 0 Z " fill="#1E1619" transform="translate(86,32)"/>
<path d="M0 0 C0.99 0.33 1.98 0.66 3 1 C3 2.32 3 3.64 3 5 C3.66 5 4.32 5 5 5 C5 5.66 5 6.32 5 7 C3.125 6.75 3.125 6.75 1 6 C-0.3125 4.0625 -0.3125 4.0625 -1 2 C-0.67 1.34 -0.34 0.68 0 0 Z " fill="#211619" transform="translate(30,14)"/>
<path d="M0 0 C1.32 0 2.64 0 4 0 C4 0.66 4 1.32 4 2 C4.66 2 5.32 2 6 2 C5.34 3.32 4.68 4.64 4 6 C2.62437146 4.71034824 1.29233607 3.37310707 0 2 C0 1.34 0 0.68 0 0 Z " fill="#E2DFDF" transform="translate(25,0)"/>
<path d="M0 0 C0.66 0.33 1.32 0.66 2 1 C0.35 3.64 -1.3 6.28 -3 9 C-3.66 8.01 -4.32 7.02 -5 6 C-3.63016497 2.83884224 -3.0109362 2.0072908 0 0 Z " fill="#F3E8E9" transform="translate(88,168)"/>
<path d="M0 0 C0.99 0.66 1.98 1.32 3 2 C3 2.99 3 3.98 3 5 C2.34 5.66 1.68 6.32 1 7 C-1.125 6.625 -1.125 6.625 -3 6 C-2 4 -1 2 0 0 Z " fill="#2F2326" transform="translate(100,153)"/>
<path d="M0 0 C1.0625 1.875 1.0625 1.875 2 4 C1.67 4.66 1.34 5.32 1 6 C-1.5625 6.625 -1.5625 6.625 -4 7 C-2.92598892 4.08482708 -2.22189824 2.22189824 0 0 Z " fill="#D9D8DB" transform="translate(108,151)"/>
<path d="M0 0 C1.32 0.33 2.64 0.66 4 1 C4 1.66 4 2.32 4 3 C3.34 3 2.68 3 2 3 C2 3.66 2 4.32 2 5 C0.02 5.33 -1.96 5.66 -4 6 C-2.68 4.02 -1.36 2.04 0 0 Z " fill="#322326" transform="translate(47,122)"/>
<path d="M0 0 C0.99 0 1.98 0 3 0 C3.33 0.99 3.66 1.98 4 3 C4.66 3.66 5.32 4.32 6 5 C5.01 5.495 5.01 5.495 4 6 C3.01 5.67 2.02 5.34 1 5 C1 4.34 1 3.68 1 3 C0.34 3 -0.32 3 -1 3 C-0.67 2.01 -0.34 1.02 0 0 Z " fill="#14090C" transform="translate(73,70)"/>
<path d="M0 0 C0.66 0 1.32 0 2 0 C1.34 1.32 0.68 2.64 0 4 C-0.66 4 -1.32 4 -2 4 C-2.33 4.99 -2.66 5.98 -3 7 C-3.66 6.67 -4.32 6.34 -5 6 C-4.34 4.68 -3.68 3.36 -3 2 C-2.01 2 -1.02 2 0 2 C0 1.34 0 0.68 0 0 Z " fill="#252023" transform="translate(21,157)"/>
<path d="M0 0 C0 3.1265633 -0.5707507 4.32015757 -2 7 C-2 7.33 -2 7.66 -2 8 C-3.65 8 -5.3 8 -7 8 C-6.02133662 6.85373678 -5.04205413 5.70800212 -4.0625 4.5625 C-3.51722656 3.92441406 -2.97195312 3.28632813 -2.41015625 2.62890625 C-1.63204305 1.73008851 -0.84063472 0.84063472 0 0 Z " fill="#372527" transform="translate(20,150)"/>
<path d="M0 0 C1 2 1 2 0.5 4.0625 C-1 6 -1 6 -4.625 6.75 C-5.73875 6.8325 -6.8525 6.915 -8 7 C-7.236875 6.401875 -6.47375 5.80375 -5.6875 5.1875 C-3.6516425 3.53040668 -1.8021721 1.89702326 0 0 Z " fill="#504547" transform="translate(110,66)"/>
<path d="M0 0 C1.65 1.65 3.3 3.3 5 5 C4.34 5.66 3.68 6.32 3 7 C1.68 7 0.36 7 -1 7 C-1 3 -1 3 0 0 Z " fill="#EAE2E3" transform="translate(77,63)"/>
<path d="M0 0 C0.66 0.33 1.32 0.66 2 1 C2 1.66 2 2.32 2 3 C-0.74454257 5.45048444 -2.30756248 6.07689062 -6 7 C-4.02 4.69 -2.04 2.38 0 0 Z " fill="#C6C5C8" transform="translate(124,58)"/>
<path d="M0 0 C1.32 0.33 2.64 0.66 4 1 C3.67 1.99 3.34 2.98 3 4 C4.32 4.33 5.64 4.66 7 5 C4.69 5 2.38 5 0 5 C0 3.35 0 1.7 0 0 Z " fill="#342C2F" transform="translate(164,53)"/>
<path d="M0 0 C0 2.83967231 -0.40267181 5.23735711 -1 8 C-2.32 7.67 -3.64 7.34 -5 7 C-5 6.34 -5 5.68 -5 5 C-4.34 5 -3.68 5 -3 5 C-2.5359375 4.0409375 -2.5359375 4.0409375 -2.0625 3.0625 C-1 1 -1 1 0 0 Z " fill="#CFCBCE" transform="translate(165,16)"/>
<path d="M0 0 C0 0.66 0 1.32 0 2 C-1.65 2.66 -3.3 3.32 -5 4 C-5.33 2.68 -5.66 1.36 -6 0 C-3 -1 -3 -1 0 0 Z " fill="#E3D6D9" transform="translate(102,19)"/>
<path d="M0 0 C0.33 0.66 0.66 1.32 1 2 C0.67 2.66 0.34 3.32 0 4 C-0.66 4 -1.32 4 -2 4 C-2 4.99 -2 5.98 -2 7 C-2.66 7 -3.32 7 -4 7 C-4 6.34 -4 5.68 -4 5 C-4.66 4.67 -5.32 4.34 -6 4 C-4.02 2.68 -2.04 1.36 0 0 Z " fill="#E4E3E7" transform="translate(130,6)"/>
<path d="M0 0 C1.70884005 1.62339805 3.37446717 3.29319053 5 5 C5 5.66 5 6.32 5 7 C3.35 6.67 1.7 6.34 0 6 C-1 3 -1 3 0 0 Z " fill="#3D3234" transform="translate(28,6)"/>
<path d="M0 0 C1.30048841 2.60097682 1.56471422 5.13955062 2 8 C1.01 8 0.02 8 -1 8 C-1 7.34 -1 6.68 -1 6 C-1.66 6 -2.32 6 -3 6 C-1.125 1.125 -1.125 1.125 0 0 Z " fill="#37292B" transform="translate(106,144)"/>
<path d="M0 0 C0.99 0.33 1.98 0.66 3 1 C3 4 3 4 2 6 C0.68 4.68 -0.64 3.36 -2 2 C-1.34 2 -0.68 2 0 2 C0 1.34 0 0.68 0 0 Z " fill="#11090C" transform="translate(138,124)"/>
<path d="M0 0 C2 2 2 2 2.125 4.625 C2.08375 5.40875 2.0425 6.1925 2 7 C1.01 7.495 1.01 7.495 0 8 C0 7.34 0 6.68 0 6 C-0.99 5.67 -1.98 5.34 -3 5 C-2.01 4.67 -1.02 4.34 0 4 C0 2.68 0 1.36 0 0 Z " fill="#150D0F" transform="translate(123,121)"/>
<path d="M0 0 C1.65 0.99 3.3 1.98 5 3 C4.01 3.33 3.02 3.66 2 4 C2 4.66 2 5.32 2 6 C1.01 5.67 0.02 5.34 -1 5 C-0.67 3.35 -0.34 1.7 0 0 Z " fill="#231A1C" transform="translate(136,120)"/>
<path d="M0 0 C1 3 1 3 0 6 C-1.65 6 -3.3 6 -5 6 C-3.35 4.02 -1.7 2.04 0 0 Z " fill="#302023" transform="translate(70,100)"/>
<path d="M0 0 C0.66 0 1.32 0 2 0 C2 0.66 2 1.32 2 2 C2.99 2 3.98 2 5 2 C5 2.66 5 3.32 5 4 C3.35 4.66 1.7 5.32 0 6 C-1 3 -1 3 0 0 Z " fill="#150B0E" transform="translate(71,100)"/>
<path d="M0 0 C1.32 0.66 2.64 1.32 4 2 C3.67 2.99 3.34 3.98 3 5 C1.68 4.67 0.36 4.34 -1 4 C-0.67 2.68 -0.34 1.36 0 0 Z " fill="#1A0E11" transform="translate(91,69)"/>
<path d="M0 0 C1.32 1.32 2.64 2.64 4 4 C3.67 4.66 3.34 5.32 3 6 C1.68 5.34 0.36 4.68 -1 4 C-0.67 2.68 -0.34 1.36 0 0 Z " fill="#150C0F" transform="translate(56,47)"/>
<path d="M0 0 C0.66 0.33 1.32 0.66 2 1 C2 2.32 2 3.64 2 5 C0.35 5.33 -1.3 5.66 -3 6 C-2.67 4.68 -2.34 3.36 -2 2 C-1.34 2 -0.68 2 0 2 C0 1.34 0 0.68 0 0 Z " fill="#4D4245" transform="translate(139,43)"/>
<path d="M0 0 C2.0625 0.4375 2.0625 0.4375 4 1 C3.34 2.65 2.68 4.3 2 6 C0.68 5.01 -0.64 4.02 -2 3 C-1 1 -1 1 0 0 Z " fill="#D6D2D4" transform="translate(45,25)"/>
<path d="M0 0 C1.37562854 1.28965176 2.70766393 2.62689293 4 4 C4 4.66 4 5.32 4 6 C3.01 6 2.02 6 1 6 C0.67 4.02 0.34 2.04 0 0 Z M-2 6 C-1.01 6.33 -0.02 6.66 1 7 C0.01 7 -0.98 7 -2 7 C-2 6.67 -2 6.34 -2 6 Z " fill="#383134" transform="translate(39,21)"/>
<path d="M0 0 C0.33 1.32 0.66 2.64 1 4 C0.01 4.66 -0.98 5.32 -2 6 C-2.66 4.35 -3.32 2.7 -4 1 C-2.68 0.67 -1.36 0.34 0 0 Z " fill="#F2EEEE" transform="translate(159,11)"/>
<path d="M0 0 C0.33 0 0.66 0 1 0 C0.67 2.31 0.34 4.62 0 7 C-1.32 6.67 -2.64 6.34 -4 6 C-2.69593116 3.98079663 -1.36176581 1.98075027 0 0 Z " fill="#D6D6D8" transform="translate(94,170)"/>
<path d="M0 0 C1.5625 1.8125 1.5625 1.8125 3 4 C2.67 4.99 2.34 5.98 2 7 C1.67 6.01 1.34 5.02 1 4 C-0.98 4.99 -0.98 4.99 -3 6 C-2 4 -1 2 0 0 Z " fill="#372D2F" transform="translate(91,166)"/>
<path d="M0 0 C0.99 0.33 1.98 0.66 3 1 C1.89131683 3.21736634 0.50559539 5.03617993 -1 7 C-1.66 5.35 -2.32 3.7 -3 2 C-2.34 2 -1.68 2 -1 2 C-0.67 1.34 -0.34 0.68 0 0 Z " fill="#474144" transform="translate(59,157)"/>
<path d="M0 0 C0.66 1.32 1.32 2.64 2 4 C1.01 4.99 0.02 5.98 -1 7 C-1.33 5.35 -1.66 3.7 -2 2 C-1.34 2 -0.68 2 0 2 C0 1.34 0 0.68 0 0 Z " fill="#251C20" transform="translate(58,153)"/>
<path d="M0 0 C2 3 2 3 1.625 5.6875 C1.41875 6.450625 1.2125 7.21375 1 8 C0.566875 7.0409375 0.566875 7.0409375 0.125 6.0625 C-0.82823451 3.84793921 -0.82823451 3.84793921 -3 3 C-3 2.34 -3 1.68 -3 1 C-2.01 0.67 -1.02 0.34 0 0 Z " fill="#221A1D" transform="translate(125,119)"/>
<path d="M0 0 C0.66 0.99 1.32 1.98 2 3 C0.68 3.99 -0.64 4.98 -2 6 C-2.66 4.68 -3.32 3.36 -4 2 C-2.68 1.34 -1.36 0.68 0 0 Z " fill="#EADEE1" transform="translate(53,113)"/>
<path d="M0 0 C-0.99 1.32 -1.98 2.64 -3 4 C-3.99 3.67 -4.98 3.34 -6 3 C-6 2.01 -6 1.02 -6 0 C-2.25 -1.125 -2.25 -1.125 0 0 Z " fill="#37282A" transform="translate(82,70)"/>
<path d="M0 0 C0.99 0 1.98 0 3 0 C3 1.98 3 3.96 3 6 C0.03 5.505 0.03 5.505 -3 5 C-1.68 4.67 -0.36 4.34 1 4 C0.67 2.68 0.34 1.36 0 0 Z " fill="#393033" transform="translate(176,54)"/>
<path d="M0 0 C0.33 0 0.66 0 1 0 C1 1.65 1 3.3 1 5 C-1.64 4.67 -4.28 4.34 -7 4 C-7 3.67 -7 3.34 -7 3 C-3.535 2.505 -3.535 2.505 0 2 C0 1.34 0 0.68 0 0 Z " fill="#E9DCDE" transform="translate(177,49)"/>
<path d="M0 0 C0.33 0.66 0.66 1.32 1 2 C1.66 2 2.32 2 3 2 C3.33 2.99 3.66 3.98 4 5 C1.03 4.67 -1.94 4.34 -5 4 C-5 3.67 -5 3.34 -5 3 C-3.35 3 -1.7 3 0 3 C0 2.01 0 1.02 0 0 Z " fill="#C3B7B9" transform="translate(146,44)"/>
<path d="M0 0 C0.33 0.99 0.66 1.98 1 3 C1.66 3.66 2.32 4.32 3 5 C1.02 5 -0.96 5 -3 5 C-2.625 3.0625 -2.625 3.0625 -2 1 C-1.34 0.67 -0.68 0.34 0 0 Z " fill="#F1EBED" transform="translate(143,42)"/>
<path d="M0 0 C1.0625 1.875 1.0625 1.875 2 4 C1.67 4.66 1.34 5.32 1 6 C-0.65 6 -2.3 6 -4 6 C-2.68 4.02 -1.36 2.04 0 0 Z " fill="#E1DFE2" transform="translate(154,28)"/>
<path d="M0 0 C1.98 0.495 1.98 0.495 4 1 C4 1.66 4 2.32 4 3 C3.34 3 2.68 3 2 3 C1.67 3.66 1.34 4.32 1 5 C0.34 4.67 -0.32 4.34 -1 4 C-0.67 2.68 -0.34 1.36 0 0 Z " fill="#1D1317" transform="translate(40,27)"/>
<path d="M0 0 C-0.625 1.875 -0.625 1.875 -2 4 C-5.125 5.25 -5.125 5.25 -8 6 C-8 5.34 -8 4.68 -8 4 C-2.58823529 0 -2.58823529 0 0 0 Z " fill="#CDCCCF" transform="translate(108,22)"/>
<path d="M0 0 C0.598125 0.20625 1.19625 0.4125 1.8125 0.625 C0.1625 2.275 -1.4875 3.925 -3.1875 5.625 C-3.1875 4.635 -3.1875 3.645 -3.1875 2.625 C-3.8475 2.295 -4.5075 1.965 -5.1875 1.625 C-2.1875 -0.375 -2.1875 -0.375 0 0 Z " fill="#EEE9E9" transform="translate(171.1875,0.375)"/>
</svg>
